<?xml version="1.0" standalone="no"?>
<!DOCTYPE svg PUBLIC "-//W3C//DTD SVG 1.1//EN" "http://www.w3.org/Graphics/SVG/1.1/DTD/svg11.dtd" >
<svg>
<metadata>
Created by FontForge 20090914 at Tue Jan 10 13:29:00 2012
 By www-data
TrueType font: Copyright &#194;&#169; 1991, 1994 ParaGraph. All rights reserved. Technical realization by TeamAXis Corp. Hinted with AXisType ToolKit: Copyright &#194;&#169; 1992, 1994 by Dmitry Komissarov.
</metadata>
<defs>
<font id="AXP-FreeSetCBold" horiz-adv-x="608" >
  <font-face 
    font-family="FreeSetCTT"
    font-weight="700"
    font-stretch="normal"
    units-per-em="1000"
    panose-1="0 0 0 0 0 0 0 0 0 0"
    ascent="800"
    descent="-200"
    x-height="518"
    cap-height="700"
    bbox="-20 -291 1171 913"
    underline-thickness="56"
    underline-position="-263"
    unicode-range="U+0020-U+2219"
  />
<missing-glyph horiz-adv-x="913" 
d="M57 0v913h799v-913h-799zM799 57v799h-685v-799h685z" />
    <glyph glyph-name=".notdef" horiz-adv-x="913" 
d="M57 0v913h799v-913h-799zM799 57v799h-685v-799h685z" />
    <glyph glyph-name="space" unicode=" " horiz-adv-x="351" 
 />
    <glyph glyph-name="exclam" unicode="!" horiz-adv-x="283" 
d="M213 700l-15 -491h-112l-16 491h143zM213 0h-142v134h142v-134z" />
    <glyph glyph-name="quotedbl" unicode="&#x22;" horiz-adv-x="474" 
d="M414 700l-24 -260h-89l-24 260h137zM197 700l-24 -259h-89l-24 259h137z" />
    <glyph glyph-name="numbersign" unicode="#" horiz-adv-x="721" 
d="M665 518l-15 -72h-114l-30 -178h114l-15 -72h-113l-27 -154h-79l27 154h-164l-26 -154h-80l27 154h-114l15 72h113l30 178h-113l15 72h113l27 154h79l-26 -154h163l26 154h80l-27 -154h114zM457 446h-163l-30 -178h163z" />
    <glyph glyph-name="dollar" unicode="$" horiz-adv-x="583" 
d="M533 208c0 -62 -21.668 -112.002 -65.001 -150.002c-36.667 -32.667 -82.667 -52.667 -138 -60v-70h-80v64c-62.667 0 -127 11.667 -193 35l15 122c59.333 -26 118.666 -39 177.999 -39v195l-23 11c-53.333 25.333 -89.666 45.666 -108.999 60.999
c-45.333 36.667 -68 81.334 -68 134.001s17.667 97.334 53 134.001c38 39.333 87 59 147 59v70h80v-66c54.667 0 109.334 -9.33301 164.001 -28l-15 -112c-47.333 20.667 -97 31 -149 31v-178l29 -12c68 -28 115 -59.667 141 -95c22 -29.333 33 -64.666 33 -105.999z
M254.999 450.998v140c-18 -4 -33 -12 -45 -24s-18 -25.667 -18 -41c0 -18.667 7 -35 21 -49c12 -12 26 -20.667 42 -26zM387.999 190.998c0 17.333 -5.5 32.332 -16.5 44.999s-26.5 23.334 -46.5 32.001v-145c42 14 63 36.667 63 68z" />
    <glyph glyph-name="percent" unicode="%" horiz-adv-x="884" 
d="M824 187c0 -56 -13 -101.333 -39 -136c-29.333 -39.333 -71.666 -59 -126.999 -59s-97.666 19.667 -126.999 59c-26 34.667 -39 80 -39 136s13 101.333 39 136c29.333 39.333 71.666 59 126.999 59s97.666 -19.667 126.999 -59c26 -34.667 39 -80 39 -136zM699 680
l-436 -703l-75 50l435 700zM392 513c0 -56 -13 -101.333 -39 -136c-29.333 -39.333 -71.666 -59 -126.999 -59s-97.666 19.667 -126.999 59c-26 34.667 -39 80 -39 136s13 101.333 39 136c29.333 39.333 71.666 59 126.999 59s97.666 -19.667 126.999 -59
c26 -34.667 39 -80 39 -136zM710 187c0 42 -1.66699 70 -5 84c-7.33301 30.667 -23 46 -47 46c-28 0 -44.667 -22 -50 -66c-1.33301 -11.333 -2 -32.666 -2 -63.999c0 -42 1.66699 -70 5 -84c7.33301 -30.667 23 -46 47 -46c28 0 44.667 22 50 66
c1.33301 11.333 2 32.666 2 63.999zM278 513c0 42 -1.66699 70 -5 84c-7.33301 30.667 -23 46 -47 46c-28 0 -44.667 -22 -50 -66c-1.33301 -11.333 -2 -32.666 -2 -63.999c0 -42 1.66699 -70 5 -84c7.33301 -30.667 23 -46 47 -46c28 0 44.667 22 50 66
c1.33301 11.333 2 32.666 2 63.999z" />
    <glyph glyph-name="ampersand" unicode="&#x26;" horiz-adv-x="742" 
d="M702 0l-163.997 0.000976562l-42 46c-30.667 -22.667 -62.334 -38.5 -95.001 -47.5s-69.667 -13.5 -111 -13.5c-79.333 0 -141 22 -185 66c-40 40 -60 91.333 -60 154c0 42 13.667 79.667 41 113s63 57.333 107 72c-28.667 30 -49.334 56 -62.001 78
c-16 27.333 -24 54.666 -24 81.999c0 40.667 13.333 75.667 40 105c35.333 39.333 88.666 59 159.999 59c70.667 0 124.667 -16.667 162 -50c32.667 -29.333 49 -65.666 49 -108.999c0 -46.667 -17.667 -88 -53 -124c-24.667 -24.667 -53.667 -44.334 -87 -59.001l133 -149
c17.333 24.667 29.333 52.667 36 84c4.66699 22 7 46 7 72h123c0 -42.667 -6 -83 -18 -121c-15.333 -48 -39.333 -90.333 -72 -127zM393.003 552.001c0 18 -7.33301 33.334 -22 46.001s-32.667 19 -54 19c-19.333 0 -36.5 -5.33301 -51.5 -16s-22.5 -25.334 -22.5 -44.001
c0 -12 2.83301 -24.167 8.5 -36.5s17.5 -27.833 35.5 -46.5l22 -23c22.667 9.33301 41.667 22.333 57 39c18 19.333 27 40 27 62zM424.003 133.002l-158.999 176c-28.667 -12 -50.334 -29 -65.001 -51c-12 -18 -18 -37.667 -18 -59c0 -30.667 10.5 -56.834 31.5 -78.501
s49.167 -32.5 84.5 -32.5c25.333 0 48.333 3.83301 69 11.5s39.667 18.834 57 33.501z" />
    <glyph glyph-name="quotesingle" unicode="'" horiz-adv-x="257" 
d="M197 700l-24 -259h-89l-24 259h137z" />
    <glyph glyph-name="parenleft" unicode="(" horiz-adv-x="377" 
d="M337 -214l-128 -0.000976562c-66 102.667 -111.333 189 -136 259c-22 62.667 -33 128.667 -33 198c0 68.667 11 134.334 33 197.001c24.667 71.333 70 158 136 260h128c-50 -80.667 -86.667 -152.667 -110 -216c-28.667 -78.667 -43 -159 -43 -241
s14.333 -162.333 43 -241c23.333 -63.333 60 -135.333 110 -216z" />
    <glyph glyph-name="parenright" unicode=")" horiz-adv-x="377" 
d="M337 243c0 -68.667 -11 -134.333 -33 -197c-24.667 -71.333 -70 -158 -136 -260h-128c50 80.667 86.667 152.667 110 216c28.667 78.667 43 159 43 241s-14.333 162.333 -43 241c-23.333 63.333 -60 135.333 -110 216h128c66 -102.667 111.333 -189 136 -259
c22 -62.667 33 -128.667 33 -198z" />
    <glyph glyph-name="asterisk" unicode="*" horiz-adv-x="483" 
d="M433 283l-45 -77l-113 77l11 -136h-90l10 136l-111 -77l-45 77l123 60l-123 59l45 77l111 -77l-10 136h90l-11 -136l113 77l45 -77l-123 -59z" />
    <glyph glyph-name="plus" unicode="+" 
d="M563 304h-214v-214h-90v214h-214v90h214v214h90v-214h214v-90z" />
    <glyph glyph-name="comma" unicode="," horiz-adv-x="287" 
d="M237 135l-69 -250h-118l47 250h140z" />
    <glyph glyph-name="hyphen" unicode="-" horiz-adv-x="523" 
d="M463 234h-403v117h403v-117z" />
    <glyph glyph-name="period" unicode="." horiz-adv-x="260" 
d="M200 0h-140v142h140v-142z" />
    <glyph glyph-name="slash" unicode="/" horiz-adv-x="624" 
d="M594 759l-491 -1050l-73 33l488 1050z" />
    <glyph glyph-name="zero" unicode="0" horiz-adv-x="594" 
d="M549 350c0 -140 -28.333 -239 -85 -297c-40 -40.667 -95.667 -61 -167 -61s-127 20.333 -167 61c-56.667 57.333 -85 156.333 -85 297c0 140 28.333 239 85 297c40 40.667 95.667 61 167 61s127 -20.333 167 -61c56.667 -57.333 85 -156.333 85 -297zM404 350
c0 95.333 -10 161.666 -30 198.999c-17.333 32.667 -43 49 -77 49c-33.333 0 -58.666 -16 -75.999 -48c-20.667 -38.667 -31 -105.334 -31 -200.001c0 -95.333 10 -161.666 30 -198.999c17.333 -32.667 43 -49 77 -49c33.333 0 58.666 16 75.999 48
c20.667 38.667 31 105.334 31 200.001z" />
    <glyph glyph-name="one" unicode="1" horiz-adv-x="429" 
d="M359 0h-142v547l-39 -35l-81 -70l-67 83l201 175h128v-700z" />
    <glyph glyph-name="two" unicode="2" horiz-adv-x="573" 
d="M523 0l-472.998 -0.00292969v116c111.333 100 189.666 179.333 234.999 238s68 109.334 68 152.001c0 30.667 -12.333 54 -37 70c-20.667 13.333 -48 20 -82 20c-22 0 -47.833 -5 -77.5 -15s-57.834 -22.667 -84.501 -38l-12 114
c40.667 18.667 79.334 31.834 116.001 39.501s68.667 11.5 96 11.5c81.333 0 142.333 -21 183 -63c32 -33.333 48 -73.666 48 -120.999c0 -62 -30 -133 -90 -213c-52.667 -70.667 -119.334 -136.667 -200.001 -198l1 -3l68 5h241v-115z" />
    <glyph glyph-name="three" unicode="3" horiz-adv-x="577" 
d="M512 203c0 -58 -22.333 -105.999 -67 -143.999c-52 -44.667 -126.333 -67 -223 -67c-51.333 0 -108.666 9.66699 -171.999 29l7 118c24.667 -10.667 52.167 -19.5 82.5 -26.5s58.166 -10.5 83.499 -10.5c50 0 87.333 12.667 112 38c18 18.667 27 41 27 67
c0 40.667 -18.333 69 -55 85c-24 10.667 -56.667 16 -98 16h-72v110h65c40.667 0 73 5 97 15c38.667 16 58 44.667 58 86c0 24 -9.33301 42.667 -28 56c-21.333 15.333 -53 23 -95 23c-26 0 -52.5 -2.66699 -79.5 -8s-53.833 -13 -80.5 -23l-8 114
c28 7.33301 58.833 13.666 92.5 18.999s66.167 8 97.5 8c92.667 0 160.667 -20.667 204 -62c31.333 -30 47 -67.667 47 -113c0 -40 -10 -74.333 -30 -103c-23.333 -33.333 -56.666 -53 -99.999 -59c41.333 -8.66699 74.166 -28.5 98.499 -59.5s36.5 -67.167 36.5 -108.5z
" />
    <glyph glyph-name="four" unicode="4" horiz-adv-x="616" 
d="M576 139h-89v-139h-142v139h-305v120l264 441h183v-451h89v-110zM347 559l-147 -261l-30 -48l51 -1h124v233z" />
    <glyph glyph-name="five" unicode="5" horiz-adv-x="577" 
d="M512 224c0 -65.333 -21.666 -119 -64.999 -161c-48.667 -47.333 -119.334 -71 -212.001 -71c-32 0 -60.333 1.66699 -85 5s-53 10.333 -85 21l3 123c28 -12 54.5 -20.833 79.5 -26.5s45.167 -8.5 60.5 -8.5c52.667 0 92.334 12 119.001 36c23.333 21.333 35 49.333 35 84
c0 32 -10.333 58.333 -31 79c-25.333 26 -63 39 -113 39c-24.667 0 -47.834 -1.33301 -69.501 -4s-45.5 -8 -71.5 -16v376h412v-110h-270v-139l48 3c84 0 147.333 -23.667 190 -71c36.667 -40.667 55 -93.667 55 -159z" />
    <glyph glyph-name="six" unicode="6" horiz-adv-x="585" 
d="M540 239c0 -69.333 -17.666 -125.668 -52.999 -169.001c-42 -52 -105 -78 -189 -78c-72.667 0 -129.334 19.333 -170.001 58c-34 32 -57.333 76.667 -70 134c-8.66699 38.667 -13 87.667 -13 147c0 101.333 16.333 182.333 49 243c27.333 50.667 65.666 87 114.999 109
c38 16.667 82.667 25 134 25c30 0 56.833 -1.66699 80.5 -5s47.834 -9.33301 72.501 -18l-16 -113c-41.333 17.333 -83 26 -125 26c-64.667 0 -111.334 -24.667 -140.001 -74c-20 -34 -30 -75.667 -30 -125c18.667 22.667 37.334 39.334 56.001 50.001
c22.667 12.667 49.667 19 81 19c64 0 115.667 -19.667 155 -59c42 -42 63 -98.667 63 -170zM390.001 229.998c0 44.667 -8.83301 77.167 -26.5 97.5s-40.834 30.5 -69.501 30.5c-28 0 -50.333 -9.33301 -67 -28c-19.333 -22 -29 -55.333 -29 -100s9.33301 -77.667 28 -99
c16.667 -19.333 39.334 -29 68.001 -29c28 0 50.333 9.33301 67 28c19.333 22 29 55.333 29 100z" />
    <glyph glyph-name="seven" unicode="7" horiz-adv-x="517" 
d="M487 595l-256 -595h-159l270 590h-312v110h457v-105z" />
    <glyph glyph-name="eight" unicode="8" 
d="M553 200c0 -66 -25 -117.999 -75 -155.999c-46 -34.667 -104 -52 -174 -52c-84 0 -148 21.667 -192 65c-38 37.333 -57 84.333 -57 141c0 40 11 75 33 105s52.333 51.333 91 64c-69.333 30 -104 81.333 -104 154c0 56.667 21.333 102 64 136s97.667 51 165 51
c68 0 123.167 -15.833 165.5 -47.5s63.5 -73.834 63.5 -126.501c0 -35.333 -9.33301 -67.166 -28 -95.499s-45.667 -48.833 -81 -61.5c40 -14 71.5 -36.333 94.5 -67s34.5 -67.334 34.5 -110.001zM398 522.001c0 21.333 -8.49902 39.833 -25.499 55.5
s-39.833 23.5 -68.5 23.5c-26 0 -48.167 -7.5 -66.5 -22.5s-27.5 -33.833 -27.5 -56.5c0 -28.667 15.667 -52.667 47 -72c12.667 -8 31.667 -17.333 57 -28c23.333 8.66699 43.166 22.5 59.499 41.5s24.5 38.5 24.5 58.5zM408.001 195.001c0 24 -10 45.333 -30 64
s-49 35.334 -87 50.001c-36.667 -16.667 -62.334 -37.334 -77.001 -62.001c-9.33301 -15.333 -14 -32.666 -14 -51.999c0 -28.667 10.167 -51.334 30.5 -68.001s44.833 -25 73.5 -25c34.667 0 61.334 10 80.001 30c16 17.333 24 38.333 24 63z" />
    <glyph glyph-name="nine" unicode="9" horiz-adv-x="585" 
d="M540 369c0 -101.333 -16.334 -182.331 -49.001 -242.998c-27.333 -50.667 -65.666 -87 -114.999 -109c-38 -16.667 -82.667 -25 -134 -25c-30 0 -56.833 1.66699 -80.5 5s-47.834 9.33301 -72.501 18l16 113c41.333 -17.333 83 -26 125 -26
c64.667 0 111.334 24.667 140.001 74c20 34 30 75.667 30 125c-18.667 -22.667 -38.334 -39.834 -59.001 -51.501s-46.667 -17.5 -78 -17.5c-64 0 -115.667 19.667 -155 59c-42 42 -63 98.667 -63 170c0 69.333 17.667 125.666 53 168.999c42 52 105 78 189 78
c72.667 0 129.334 -19.333 170.001 -58c34 -32 57.333 -76.667 70 -134c8.66699 -38.667 13 -87.667 13 -147zM386.999 470.002c0 44.667 -8.83301 77.167 -26.5 97.5s-40.834 30.5 -69.501 30.5c-28 0 -50.333 -9.33301 -67 -28c-19.333 -22 -29 -55.333 -29 -100
s9.33301 -77.667 28 -99c16.667 -19.333 39.334 -29 68.001 -29c28 0 50.333 9.33301 67 28c19.333 22 29 55.333 29 100z" />
    <glyph glyph-name="colon" unicode=":" horiz-adv-x="260" 
d="M200 376h-140v142h140v-142zM200 0h-140v142h140v-142z" />
    <glyph glyph-name="semicolon" unicode=";" horiz-adv-x="287" 
d="M228 376h-140v142h140v-142zM237 135l-69 -250h-118l47 250h140z" />
    <glyph glyph-name="less" unicode="&#x3c;" horiz-adv-x="672" 
d="M591 61l-535 297l535 293v-106l-341 -189l341 -189v-106z" />
    <glyph glyph-name="equal" unicode="=" horiz-adv-x="639" 
d="M579 399h-518v90h518v-90zM578 209h-518v90h518v-90z" />
    <glyph glyph-name="greater" unicode="&#x3e;" horiz-adv-x="672" 
d="M616 358l-535 -297v106l341 189l-341 189v106z" />
    <glyph glyph-name="question" unicode="?" horiz-adv-x="528" 
d="M478 540c0 -40 -10.333 -77.665 -31 -112.998c-13.333 -22.667 -35.666 -50 -66.999 -82c-24.667 -24.667 -41 -43 -49 -55c-14 -21.333 -21 -45 -21 -71v-20h-130v20c0 26.667 3.5 49.667 10.5 69s18.167 39.666 33.5 60.999c34.667 41.333 58.334 70.333 71.001 87
c22 28 33 54.667 33 80s-7 45 -21 59c-16.667 16.667 -42.334 25 -77.001 25c-28 0 -56.667 -2.83301 -86 -8.5s-57.333 -15.167 -84 -28.5l-10 114c32 10.667 63.667 18.667 95 24s64.666 8 99.999 8c80 0 140.667 -18.667 182 -56c34 -30.667 51 -68.334 51 -113.001z
M315 0.00195312h-140v124h140v-124z" />
    <glyph glyph-name="at" unicode="@" horiz-adv-x="790" 
d="M745 392c0 -69.333 -19.334 -124.332 -58.001 -164.999c-33.333 -35.333 -72 -53 -116 -53c-24.667 0 -45.167 7.33301 -61.5 22s-24.5 35.334 -24.5 62.001c-16 -28 -37.667 -48 -65 -60c-19.333 -8.66699 -40.666 -13 -63.999 -13c-34.667 0 -64.334 11.333 -89.001 34
c-28 26 -42 61 -42 105c0 64.667 18 116.667 54 156c32 35.333 70.333 53 115 53c26.667 0 48.667 -6.33301 66 -19c14.667 -10.667 26.334 -25.667 35.001 -45l10 48h79l-31 -218c-2 -14.667 0.333008 -25.667 7 -33s14.334 -11 23.001 -11c18.667 0 37 10.667 55 32
c22.667 26.667 34 61.667 34 105c0 72 -25.167 130.5 -75.5 175.5s-114.833 67.5 -193.5 67.5c-76.667 0 -143.334 -27.333 -200.001 -82s-85 -122.334 -85 -203.001c0 -70.667 23.667 -133.334 71 -188.001c56 -64.667 130.667 -97 224 -97c37.333 0 72.333 4.33301 105 13
c22.667 6 46 15 70 27l30 -67c-30.667 -16 -63.5 -27.667 -98.5 -35s-71.5 -11 -109.5 -11c-116 0 -208 39.333 -276 118c-59.333 68.667 -89 148.667 -89 240c0 101.333 34.667 186.333 104 255s154 103 254 103c99.333 0 180.333 -27.667 243 -83
c66 -58 99 -135.667 99 -233zM473.999 391.001c0 23.333 -7 41.668 -21 55.001c-11.333 10.667 -25.333 16 -42 16c-25.333 0 -46.333 -13 -63 -39s-25 -58.333 -25 -97c0 -24.667 7.33301 -43.334 22 -56.001c12 -10 25.667 -15 41 -15c20 0 37.667 8 53 24
c18.667 18.667 30 45 34 79z" />
    <glyph glyph-name="A" unicode="A" horiz-adv-x="749" 
d="M734 0h-160l-59 157h-289l-59 -157h-152l279 700h162zM473 273l-103 286l-99 -286h202z" />
    <glyph glyph-name="B" unicode="B" horiz-adv-x="626" 
d="M566 197c0 -54 -17.668 -97.666 -53.001 -130.999c-46.667 -44 -120.667 -66 -222 -66h-221v700h230c70.667 0 126.334 -14 167.001 -42c44 -30.667 66 -74.334 66 -131.001c0 -47.333 -12.667 -85.333 -38 -114c-19.333 -22 -44.666 -37.667 -75.999 -47
c45.333 -8 81.166 -27.167 107.499 -57.5s39.5 -67.5 39.5 -111.5zM389.999 503.001c0 20.667 -5.33398 37.668 -16.001 51.001c-18.667 24 -51.667 36 -99 36h-63v-174h69c40.667 0 70.334 10.667 89.001 32c13.333 15.333 20 33.666 20 54.999zM415.998 208.002
c0 29.333 -8.33301 52 -25 68c-20.667 20 -54 30 -100 30h-79v-196h79c42 0 74 10 96 30c19.333 17.333 29 40 29 68z" />
    <glyph glyph-name="C" unicode="C" horiz-adv-x="630" 
d="M590 22c-30.667 -10.667 -61.168 -18.334 -91.501 -23.001s-60.166 -7 -89.499 -7c-98.667 0 -181 27 -247 81c-78 63.333 -117 154.333 -117 273c0 116 37.333 206.333 112 271c70 60.667 162.667 91 278 91c30 0 56.167 -1.66699 78.5 -5s47.833 -9.66602 76.5 -18.999
l-6 -120c-21.333 8.66699 -43.5 15.167 -66.5 19.5s-47.167 6.5 -72.5 6.5c-77.333 0 -138.333 -22 -183 -66s-67 -102.667 -67 -176c0 -80 24 -140.667 72 -182c43.333 -37.333 99.333 -56 168 -56c29.333 0 55.5 2.66699 78.5 8s45.5 13 67.5 23z" />
    <glyph glyph-name="D" unicode="D" horiz-adv-x="717" 
d="M672 350c0 -97.333 -23 -174.667 -69 -232c-63.333 -78.667 -167.333 -118 -312 -118h-221v700h221c59.333 0 110.333 -6 153 -18c66 -18.667 118 -51 156 -97c48 -58 72 -136.333 72 -235zM522 349.999c0 74.667 -20.333 132 -61 172s-96.667 60 -168 60h-81v-464h81
c50 0 93.333 10.667 130 32c66 38 99 104.667 99 200z" />
    <glyph glyph-name="E" unicode="E" horiz-adv-x="538" 
d="M488 0h-418v700h418v-124h-276v-158h251v-115h-251v-179h276v-124z" />
    <glyph glyph-name="F" unicode="F" horiz-adv-x="492" 
d="M462 582h-250v-170h238v-115h-238v-297h-142v700h392v-118z" />
    <glyph glyph-name="G" unicode="G" horiz-adv-x="729" 
d="M659 30c-44.667 -12 -88.0029 -21.334 -130.003 -28.001s-80.333 -10 -115 -10c-112 0 -201 31 -267 93c-68 64 -102 152.333 -102 265c0 114.667 34.5 203 103.5 265s163.5 93 283.5 93c39.333 0 74.833 -2.16699 106.5 -6.5s64.5 -12.166 98.5 -23.499l-8 -125
c-33.333 15.333 -66.666 26 -99.999 32s-66.666 9 -99.999 9c-71.333 0 -128.166 -21.833 -170.499 -65.5s-63.5 -103.167 -63.5 -178.5c0 -74 20.5 -132.5 61.5 -175.5s96.5 -64.5 166.5 -64.5c22 0 39.167 0.833008 51.5 2.5s26.5 5.5 42.5 11.5v167h-143v110h285v-371z
" />
    <glyph glyph-name="H" unicode="H" horiz-adv-x="708" 
d="M638 0h-142v303h-284v-303h-142v700h142v-282h284v282h142v-700z" />
    <glyph glyph-name="I" unicode="I" horiz-adv-x="282" 
d="M212 0h-142v700h142v-700z" />
    <glyph glyph-name="J" unicode="J" horiz-adv-x="379" 
d="M309 203c0 -80 -17.002 -136.333 -51.002 -169c-29.333 -28 -72.666 -42 -129.999 -42c-20.667 0 -39.667 1.16699 -57 3.5s-34.333 5.5 -51 9.5v114c26.667 -6 49.334 -9 68.001 -9c29.333 0 50.333 9.33301 63 28c10.667 16 16 41 16 75v487h142v-497z" />
    <glyph glyph-name="K" unicode="K" horiz-adv-x="662" 
d="M655 0h-180l-260 348l-3 -348h-142v700h142v-299l256 299h169l-292 -317z" />
    <glyph glyph-name="L" unicode="L" horiz-adv-x="510" 
d="M490 0h-420v700h142v-582h278v-118z" />
    <glyph glyph-name="M" unicode="M" horiz-adv-x="965" 
d="M895 0h-142v492l2 108l-35 -100l-170 -500h-135l-170 500l-32 100l-1 -108v-492h-142v700h240l140 -407l31 -124l34 124l140 407h240v-700z" />
    <glyph glyph-name="N" unicode="N" horiz-adv-x="745" 
d="M675 0h-184l-244 458l-35 78v-124v-412h-142v700h184l242 -441l37 -95v124v412h142v-700z" />
    <glyph glyph-name="O" unicode="O" horiz-adv-x="776" 
d="M731 350c0 -118.667 -35.333 -210 -106 -274c-62 -56 -141 -84 -237 -84s-174.667 27.667 -236 83c-71.333 64 -107 155.667 -107 275c0 118.667 35.333 210 106 274c62 56 141 84 237 84s174.667 -27.667 236 -83c71.333 -64 107 -155.667 107 -275zM581 350
c0 102.667 -25.333 175.334 -76 218.001c-32 26.667 -71 40 -117 40c-45.333 0 -84 -13.333 -116 -40c-51.333 -42.667 -77 -115.334 -77 -218.001s25.333 -175.334 76 -218.001c32 -26.667 71 -40 117 -40c45.333 0 84 13.333 116 40c51.333 42.667 77 115.334 77 218.001z
" />
    <glyph glyph-name="P" unicode="P" horiz-adv-x="586" 
d="M546 481c0 -54.667 -18 -102.333 -54 -143c-44.667 -50 -107.667 -75 -189 -75h-91v-263h-142v700h207c84.667 0 150.667 -19.5 198 -58.5s71 -92.5 71 -160.5zM396 485.001c0 31.333 -9.33398 56 -28.001 74c-21.333 20.667 -51.666 31 -90.999 31h-65v-217h65
c40 0 70.667 12 92 36c18 20 27 45.333 27 76z" />
    <glyph glyph-name="Q" unicode="Q" horiz-adv-x="776" 
d="M731 350c0 -66.667 -11 -124.667 -33 -174c-32.667 -72 -88 -124.333 -166 -157l163 -151h-168l-129 124h-10c-106 0 -189.667 32.333 -251 97s-92 151.667 -92 261c0 118.667 35.333 210 106 274c62 56 141 84 237 84s174.667 -27.667 236 -83
c71.333 -64 107 -155.667 107 -275zM581 350c0 102.667 -25.333 175.334 -76 218.001c-32 26.667 -71 40 -117 40c-45.333 0 -84 -13.333 -116 -40c-51.333 -42.667 -77 -115.334 -77 -218.001s25.333 -175.334 76 -218.001c32 -26.667 71 -40 117 -40
c45.333 0 84 13.333 116 40c51.333 42.667 77 115.334 77 218.001z" />
    <glyph glyph-name="R" unicode="R" horiz-adv-x="695" 
d="M635 0l-158.998 -0.00195312l-90 222c-9.33301 22.667 -20.833 39.334 -34.5 50.001s-32.167 16 -55.5 16h-54v-288h-142v700h248c86 0 148.333 -19.667 187 -59c32 -32 48 -75.667 48 -131c0 -50.667 -16.333 -90.667 -49 -120c-22.667 -20 -51.334 -34.333 -86.001 -43
c31.333 -9.33301 55.666 -34.666 72.999 -75.999zM437.002 494.998c0 22 -5.66699 40.667 -17 56c-19.333 26 -53.333 39 -102 39h-76v-192h76c40.667 0 71.667 11 93 33c17.333 18 26 39.333 26 64z" />
    <glyph glyph-name="S" unicode="S" horiz-adv-x="552" 
d="M502 196c0 -59.333 -21.6709 -107.334 -65.0039 -144.001c-47.333 -40 -114.666 -60 -201.999 -60c-32 0 -62.833 3 -92.5 9s-59.5 14.667 -89.5 26l15 122c28 -12.667 57.667 -22.834 89 -30.501s59.333 -11.5 84 -11.5c35.333 0 62.833 8.5 82.5 25.5
s29.5 36.5 29.5 58.5c0 36 -22.667 66 -68 90l-73 35c-58 28.667 -98 55 -120 79c-28 30.667 -42 69.334 -42 116.001c0 48 13.667 89.333 41 124c38.667 48.667 98.334 73 179.001 73c36.667 0 71.334 -2.16699 104.001 -6.5s64.667 -12.166 96 -23.499l-15 -112
c-21.333 8.66699 -46.166 16.5 -74.499 23.5s-54.5 10.5 -78.5 10.5c-38.667 0 -67 -8.66699 -85 -26c-13.333 -12.667 -20 -28.667 -20 -48c0 -24.667 10 -46 30 -64c12.667 -11.333 33.667 -23.333 63 -36c74.667 -32 124.667 -59 150 -81c41.333 -36 62 -85.667 62 -149z
" />
    <glyph glyph-name="T" unicode="T" horiz-adv-x="576" 
d="M561 576h-202v-576h-142v576h-202v124h546v-124z" />
    <glyph glyph-name="U" unicode="U" horiz-adv-x="724" 
d="M654 266c0 -72.667 -15.334 -130.667 -46.001 -174c-47.333 -66.667 -128.666 -100 -243.999 -100c-74.667 0 -134.667 13 -180 39c-76 44 -114 122.333 -114 235v434h142v-434c0 -56 13 -97.333 39 -124s63 -40 111 -40c61.333 0 104 21 128 63
c14.667 25.333 22 59 22 101v434h142v-434z" />
    <glyph glyph-name="V" unicode="V" horiz-adv-x="701" 
d="M681 700l-242 -700h-175l-244 700h152l151 -455l31 -108l32 108l153 455h142z" />
    <glyph glyph-name="W" unicode="W" horiz-adv-x="1043" 
d="M1023 700l-189 -700h-180l-107 455l-24 134l-24 -134l-103 -455h-183l-193 700h149l104 -418l30 -158l30 158l94 418h192l99 -418l29 -158l31 158l102 418h143z" />
    <glyph glyph-name="X" unicode="X" horiz-adv-x="699" 
d="M679 0h-168l-134 222l-30 54l-33 -54l-139 -222h-155l234 366l-213 334h168l112 -195l32 -59l35 59l115 195h155l-213 -334z" />
    <glyph glyph-name="Y" unicode="Y" horiz-adv-x="656" 
d="M654 700l-252 -416v-284h-142v286l-258 414h164l144 -246l22 -48l27 48l145 246h150z" />
    <glyph glyph-name="Z" unicode="Z" horiz-adv-x="591" 
d="M541 0h-491v119l326 459l-81 -2h-236v124h471v-122l-323 -454h334v-124z" />
    <glyph glyph-name="bracketleft" unicode="[" horiz-adv-x="361" 
d="M311 -218h-251v970h251v-99h-116v-772h116v-99z" />
    <glyph glyph-name="backslash" unicode="\" horiz-adv-x="638" 
d="M558 -226l-75 -28l-403 954l76 27z" />
    <glyph glyph-name="bracketright" unicode="]" horiz-adv-x="361" 
d="M301 -218h-251v99h116v772h-116v99h251v-970z" />
    <glyph glyph-name="asciicircum" unicode="^" horiz-adv-x="583" 
d="M527 119h-116l-120 191l-119 -191h-116l234 376z" />
    <glyph glyph-name="underscore" unicode="_" horiz-adv-x="490" 
d="M490 -208h-490v90h490v-90z" />
    <glyph glyph-name="grave" unicode="`" horiz-adv-x="343" 
d="M282 573h-83l-145 160h140z" />
    <glyph glyph-name="a" unicode="a" horiz-adv-x="581" 
d="M516 0l-132.998 -0.00195312v76c-12.667 -21.333 -27.334 -38 -44.001 -50c-31.333 -22.667 -71.333 -34 -120 -34c-61.333 0 -108.333 16 -141 48c-28.667 28.667 -43 65.334 -43 110.001c0 46 15.333 83.333 46 112c42.667 39.333 113 59 211 59l76 -1h12l-1 22
c0 36.667 -17 62.334 -51 77.001c-18.667 8 -40.334 12 -65.001 12c-28 0 -55.167 -3.5 -81.5 -10.5s-54.5 -18.833 -84.5 -35.5v107c29.333 12 59.833 20.667 91.5 26s64.5 8 98.5 8c92.667 0 157 -23.333 193 -70c24 -30.667 36 -73.667 36 -129v-327zM380.002 221.998v13
h-23c-56.667 0 -96.667 -3.33301 -120 -10c-42.667 -12 -64 -36.667 -64 -74c0 -19.333 6.83301 -35.333 20.5 -48s34.5 -19 62.5 -19c34 0 61.667 9 83 27c27.333 23.333 41 60.333 41 111z" />
    <glyph glyph-name="b" unicode="b" 
d="M573 259c0 -84 -22.332 -150.668 -66.999 -200.001c-40.667 -44.667 -91 -67 -151 -67c-32 0 -61.333 6 -88 18c-36.667 16.667 -63.667 43.334 -81 80.001l-2 -90h-119v750h136v-217l-3 -85c15.333 24 35.666 43 60.999 57s55.333 21 90 21
c70.667 0 125.667 -24.5 165 -73.5s59 -113.5 59 -193.5zM431.001 258.999c0 51.333 -12.333 91.666 -37 120.999c-21.333 25.333 -47.333 38 -78 38s-56.667 -12.667 -78 -38c-24.667 -29.333 -37 -69.666 -37 -120.999s12.333 -91.666 37 -120.999
c21.333 -25.333 47.333 -38 78 -38s56.667 12.667 78 38c24.667 29.333 37 69.666 37 120.999z" />
    <glyph glyph-name="c" unicode="c" horiz-adv-x="463" 
d="M438 12c-16.667 -5.33301 -36.333 -10.001 -59 -14.001s-47.334 -6 -74.001 -6c-87.333 0 -155.333 28 -204 84c-44 50.667 -66 113.334 -66 188.001c0 73.333 23.667 134.333 71 183c51.333 52.667 121 79 209 79c18.667 0 37.5 -1 56.5 -3s38.5 -5.66699 58.5 -11
l-8 -98c-23.333 9.33301 -51.333 14 -84 14c-46.667 0 -85.167 -15.5 -115.5 -46.5s-45.5 -72.5 -45.5 -124.5c0 -48.667 13.667 -88.667 41 -120s64.333 -47 111 -47c19.333 0 36.833 1.5 52.5 4.5s32.834 8.5 51.501 16.5z" />
    <glyph glyph-name="d" unicode="d" horiz-adv-x="605" 
d="M543 0h-119.001v90c-21.333 -36 -47.666 -62 -78.999 -78c-26.667 -13.333 -57.334 -20 -92.001 -20c-66 0 -118.833 24.167 -158.5 72.5s-59.5 113.166 -59.5 194.499c0 87.333 24 155.333 72 204c42 42 92.667 63 152 63c34.667 0 65.334 -7.66699 92.001 -23
c22.667 -13.333 41.667 -31.666 57 -54.999l-1 85v217h136v-750zM406.999 259c0 51.333 -12.333 91.666 -37 120.999c-21.333 25.333 -47.333 38 -78 38s-56.667 -12.667 -78 -38c-24.667 -29.333 -37 -69.666 -37 -120.999s12.333 -91.666 37 -120.999
c21.333 -25.333 47.333 -38 78 -38s56.667 12.667 78 38c24.667 29.333 37 69.666 37 120.999z" />
    <glyph glyph-name="e" unicode="e" horiz-adv-x="565" 
d="M530 218l-353 -0.00195312c0 -36 12.667 -65.667 38 -89c28 -26 66.667 -39 116 -39c30.667 0 58.334 2.83301 83.001 8.5s51 14.834 79 27.501v-102c-25.333 -9.33301 -54.333 -17 -87 -23s-63.334 -9 -92.001 -9c-82.667 0 -148.667 21.333 -198 64
c-54 46.667 -81 114.334 -81 203.001c0 80.667 25.333 146 76 196c48 47.333 108 71 180 71c78 0 137.333 -25 178 -75s61 -117.333 61 -202v-31zM390 310.998c0 40.667 -11.333 71.667 -34 93c-20 18.667 -44.333 28 -73 28c-29.333 0 -54.333 -11.667 -75 -35
s-31 -52 -31 -86h213z" />
    <glyph glyph-name="f" unicode="f" horiz-adv-x="405" 
d="M385 746l-3.99902 -95l-23 4.5c-8.66699 1.66699 -18.334 2.5 -29.001 2.5c-30.667 0 -50.5 -8 -59.5 -24s-13.5 -44.667 -13.5 -86v-30h122v-100h-122v-418h-136v418h-100v100h100v37c0 58.667 7.33301 102 22 130c25.333 48.667 74 73 146 73c16.667 0 32.5 -1 47.5 -3
s31.5 -5 49.5 -9z" />
    <glyph glyph-name="g" unicode="g" horiz-adv-x="612" 
d="M547 41c0 -37.333 -3.33203 -68.666 -9.99902 -93.999c-12.667 -48.667 -35.667 -86.667 -69 -114c-44.667 -36.667 -106.334 -55 -185.001 -55c-32 0 -63 2.33301 -93 7s-63.333 14.334 -100 29.001l11 114c24 -12 50 -22.167 78 -30.5s55.333 -12.5 82 -12.5
c48 0 85 12.333 111 37s39 58.667 39 102v68c-14 -24.667 -28.667 -43.334 -44 -56.001c-30.667 -25.333 -69.667 -38 -117 -38c-72.667 0 -128.334 28 -167.001 84c-32 46.667 -48 105 -48 175c0 79.333 19.833 143.166 59.5 191.499s90.834 72.5 153.501 72.5
c35.333 0 66.333 -6 93 -18c34 -15.333 59 -39.333 75 -72l3 87h128v-477zM411.001 270c0 43.333 -10.999 77.667 -32.999 103s-52.333 38 -91 38c-35.333 0 -62.5 -14.667 -81.5 -44s-28.5 -65 -28.5 -107c0 -58 14 -100 42 -126c20 -18.667 46 -28 78 -28
c31.333 0 58.166 14 80.499 42s33.5 68.667 33.5 122z" />
    <glyph glyph-name="h" unicode="h" horiz-adv-x="612" 
d="M547 0l-135.999 0.000976562v298c0 43.333 -7.16699 73.666 -21.5 90.999s-36.5 26 -66.5 26c-32 0 -59.333 -12 -82 -36c-26.667 -28.667 -40 -69 -40 -121v-258h-136v750h136v-233l-5 -80c19.333 23.333 36.666 40.666 51.999 51.999c34 24.667 72.667 37 116 37
c60 0 105.5 -17.167 136.5 -51.5s46.5 -78.166 46.5 -131.499v-343z" />
    <glyph glyph-name="i" unicode="i" horiz-adv-x="270" 
d="M205 595h-140v140h140v-140zM203 0h-136v518h136v-518z" />
    <glyph glyph-name="j" unicode="j" horiz-adv-x="260" 
d="M200 606h-140v126h140v-126zM198 -41c0 -53.333 -7.66602 -93.333 -22.999 -120c-24 -41.333 -69 -62 -135 -62c-10.667 0 -20.834 0.833008 -30.501 2.5s-19.5 3.5 -29.5 5.5v96c10 -2.66699 21.667 -4 35 -4c19.333 0 32 6.5 38 19.5s9 32.167 9 57.5v564h136v-559z
" />
    <glyph glyph-name="k" unicode="k" horiz-adv-x="552" 
d="M542 0h-166l-170 263h-5v-263h-136v750h136v-447h5l162 215h156l-190 -235z" />
    <glyph glyph-name="l" unicode="l" horiz-adv-x="266" 
d="M201 0h-136v750h136v-750z" />
    <glyph glyph-name="m" unicode="m" horiz-adv-x="902" 
d="M837 0l-135.997 -0.000976562v291c0 37.333 -3 64 -9 80c-11.333 29.333 -34 44 -68 44c-28.667 0 -52.667 -10.333 -72 -31c-22 -24 -33 -56.667 -33 -98v-286h-136v291c0 50 -6.33301 83.167 -19 99.5s-31.334 24.5 -56.001 24.5c-28.667 0 -52.667 -9.66699 -72 -29
c-23.333 -23.333 -35 -56.666 -35 -99.999v-286h-136v518h129v-88c16 32 38.167 56 66.5 72s60.166 24 95.499 24c42.667 0 76.334 -10.333 101.001 -31c19.333 -16 33 -38 41 -66c19.333 32.667 44.166 57 74.499 73s63.166 24 98.499 24c40.667 0 74 -8.66699 100 -26
c44 -29.333 66 -81 66 -155v-345z" />
    <glyph glyph-name="n" unicode="n" horiz-adv-x="612" 
d="M547 0h-135.998v313c0 28 -6.66699 51.333 -20 70c-15.333 21.333 -38 32 -68 32c-38 0 -68.667 -15.667 -92 -47c-20 -27.333 -30 -57 -30 -89v-279h-136v518h131v-81c23.333 34 52.666 58.333 87.999 73c25.333 10.667 51.666 16 78.999 16
c54.667 0 99 -14.333 133 -43s51 -68.667 51 -120v-363z" />
    <glyph glyph-name="o" unicode="o" horiz-adv-x="605" 
d="M570 259c0 -84.667 -24.668 -150.333 -74.001 -197s-113.666 -70 -192.999 -70c-80 0 -144 22.667 -192 68c-50.667 48 -76 114.333 -76 199c0 84 24.833 149.5 74.5 196.5s114.167 70.5 193.5 70.5s143 -22.667 191 -68c50.667 -48 76 -114.333 76 -199z
M427.999 259.001c0 51.333 -11.332 92.333 -33.999 123s-53 46 -91 46c-34.667 0 -63.334 -13 -86.001 -39c-26.667 -30 -40 -73.333 -40 -130c0 -55.333 13.333 -98.333 40 -129c23.333 -26.667 52 -40 86 -40c38 0 68.333 15.333 91 46s34 71.667 34 123z" />
    <glyph glyph-name="p" unicode="p" 
d="M573 259c0 -89.333 -22.9971 -157.665 -68.9971 -204.998c-40.667 -41.333 -92.334 -62 -155.001 -62c-34.667 0 -64.334 7.16699 -89.001 21.5s-44.667 33.166 -60 56.499l1 -85v-199h-136v732h119v-90c18 31.333 42.167 55.5 72.5 72.5s63.166 25.5 98.499 25.5
c64 0 115 -20.333 153 -61c43.333 -46.667 65 -115.334 65 -206.001zM431.003 259.001c0 51.333 -12.333 91.666 -37 120.999c-21.333 25.333 -47.333 38 -78 38s-56.667 -12.667 -78 -38c-24.667 -29.333 -37 -69.666 -37 -120.999s12.333 -91.666 37 -120.999
c21.333 -25.333 47.333 -38 78 -38s56.667 12.667 78 38c24.667 29.333 37 69.666 37 120.999z" />
    <glyph glyph-name="q" unicode="q" 
d="M543 -213h-135.999v199l3 85c-36.667 -52.667 -87 -79 -151 -79c-63.333 0 -115 20.667 -155 62c-46 47.333 -69 116 -69 206c0 85.333 21.667 152 65 200c40 44 91 66 153 66c40.667 0 75.167 -8.66699 103.5 -26s50.166 -41 65.499 -71l2 89h119v-731zM407.001 259
c0 51.333 -12.333 91.666 -37 120.999c-21.333 25.333 -47.333 38 -78 38s-56.667 -12.667 -78 -38c-24.667 -29.333 -37 -69.666 -37 -120.999s12.333 -91.666 37 -120.999c21.333 -25.333 47.333 -38 78 -38s56.667 12.667 78 38c24.667 29.333 37 69.666 37 120.999z" />
    <glyph glyph-name="r" unicode="r" horiz-adv-x="396" 
d="M376 520l-4.99902 -99.001l-44 3c-32 0 -59 -11 -81 -33c-30 -30 -45 -77.333 -45 -142v-249h-136v518h124v-112c8 34.667 23.333 62.667 46 84c25.333 24 57.333 36 96 36c5.33301 0 12.666 -0.666992 21.999 -2s17 -2.66602 23 -3.99902z" />
    <glyph glyph-name="s" unicode="s" horiz-adv-x="454" 
d="M414 152c0 -45.333 -16 -82.3311 -48 -110.998c-36 -32.667 -87.333 -49 -154 -49c-26.667 0 -55.167 2.66699 -85.5 8s-59.166 12.666 -86.499 21.999l6 106c24 -10 49 -18.333 75 -25s49.667 -10 71 -10c30.667 0 53.667 6.66699 69 20c11.333 10 17 22 17 36
c0 25.333 -19.333 45.666 -58 60.999l-63 24c-36 15.333 -62 32 -78 50c-20 22.667 -30 52.334 -30 89.001c0 38 12.333 70.667 37 98c33.333 36.667 84 55 152 55c28.667 0 55.167 -1 79.5 -3s53.166 -8.33301 86.499 -19l-12 -98c-22 8 -43.333 14.167 -64 18.5
s-38.667 6.5 -54 6.5c-37.333 0 -63.333 -7.33301 -78 -22c-8.66699 -8.66699 -13 -19.334 -13 -32.001c0 -19.333 10 -34.333 30 -45c7.33301 -4 29.333 -12 66 -24s65.667 -27.333 87 -46c32 -28 48 -64.667 48 -110z" />
    <glyph glyph-name="t" unicode="t" horiz-adv-x="396" 
d="M368 5c-13.333 -3.33301 -30.668 -6.33203 -52.001 -8.99902s-39 -4 -53 -4c-50 0 -87.667 13.667 -113 41s-38 67 -38 119v266h-102v100h102v103l136 43v-146h120v-100h-120v-235c0 -38.667 5.16699 -63.5 15.5 -74.5s27.5 -16.5 51.5 -16.5
c10.667 0 19.334 0.666992 26.001 2s15.667 3.66602 27 6.99902v-96z" />
    <glyph glyph-name="u" unicode="u" horiz-adv-x="612" 
d="M547 0h-131.002v81c-23.333 -34 -52.666 -58.333 -87.999 -73c-25.333 -10.667 -51.666 -16 -78.999 -16c-48.667 0 -87 9.33301 -115 28c-46 30.667 -69 85 -69 163v335h136v-313c0 -27.333 4 -48.333 12 -63c14 -26 39.333 -39 76 -39c38 0 68.333 14.667 91 44
c20.667 26.667 31 59 31 97v274h136v-518z" />
    <glyph glyph-name="v" unicode="v" horiz-adv-x="565" 
d="M555 518l-191 -518h-160l-194 518h149l109 -320l21 -76l22 76l105 320h139z" />
    <glyph glyph-name="w" unicode="w" horiz-adv-x="909" 
d="M899 518l-170 -518h-161l-95 322l-20 86l-21 -85l-90 -323h-161l-171 518h145l86 -287l26 -106l26 109l85 284h161l88 -287l26 -107l27 108l82 286h137z" />
    <glyph glyph-name="x" unicode="x" horiz-adv-x="567" 
d="M557 0h-162l-86 138l-31 58l-35 -60l-82 -136h-151l174 267l-159 251h162l72 -121l30 -59l34 61l68 119h151l-159 -251z" />
    <glyph glyph-name="y" unicode="y" horiz-adv-x="551" 
d="M548 518l-219 -580.999c-20 -52.667 -40.667 -89.334 -62 -110.001c-34 -32 -84 -48 -150 -48c-26 0 -52.333 4.66699 -79 14l10 101l22 -7c8.66699 -2.66699 19 -4 31 -4c24 0 43.5 4.33301 58.5 13s26.833 23.667 35.5 45l12 30l-204 547h150l97 -286l29 -99h5l32 103
l94 282h138z" />
    <glyph glyph-name="z" unicode="z" horiz-adv-x="537" 
d="M487 0h-437v103l230 264l45 48l-262 3v100h414v-100l-221 -265l-46 -50l277 -3v-100z" />
    <glyph glyph-name="braceleft" unicode="{" horiz-adv-x="444" 
d="M384 -119l-3.99805 -98.9971h-22c-90.667 0 -152.667 20.333 -186 61c-22.667 28 -34 71.333 -34 130v137c0 28 -4 50 -12 66c-14 27.333 -38.667 41 -74 41h-22v100h22c35.333 0 59.666 13.333 72.999 40c8.66699 17.333 13 39.666 13 66.999v137
c0 58.667 11 101.667 33 129c33.333 41.333 95.666 62 186.999 62h22l4 -99h-11c-34 0 -58 -5 -72 -15c-22 -16 -33 -48.667 -33 -98v-97c0 -42.667 -3.33301 -73.667 -10 -93c-12.667 -36.667 -38 -61.334 -76 -74.001l-18 -6v-6l18 -6
c37.333 -12.667 62.333 -37.334 75 -74.001c7.33301 -21.333 11 -52.333 11 -93v-97c0 -49.333 11 -82 33 -98c14 -10 38 -15 72 -15h11z" />
    <glyph glyph-name="bar" unicode="|" horiz-adv-x="210" 
d="M150 -280h-90v1053h90v-1053z" />
    <glyph glyph-name="braceright" unicode="}" horiz-adv-x="444" 
d="M414 217l-22.001 -0.00292969c-35.333 0 -59.666 -13.333 -72.999 -40c-8.66699 -17.333 -13 -39.666 -13 -66.999v-137c0 -58.667 -11 -101.667 -33 -129c-33.333 -41.333 -95.666 -62 -186.999 -62h-22l-4 99h11c44 0 73.667 11 89 33c10.667 15.333 16 42 16 80v97
c0 42.667 3.33301 73.667 10 93c12.667 36.667 38 61.334 76 74.001l18 6v6l-18 6c-37.333 12.667 -62.333 37.334 -75 74.001c-7.33301 21.333 -11 52.333 -11 93v97c0 47.333 -8.83301 78 -26.5 92s-43.834 21 -78.501 21h-11l4 99h22c90.667 0 152.667 -20.333 186 -61
c22.667 -28 34 -71.333 34 -130v-137c0 -28 4 -50 12 -66c14 -27.333 38.667 -41 74 -41h22v-100z" />
    <glyph glyph-name="asciitilde" unicode="~" horiz-adv-x="602" 
d="M542 308c-22.667 -34 -43.6689 -58.333 -63.002 -73c-24 -18.667 -52 -28 -84 -28c-21.333 0 -42.666 3.33301 -63.999 10c-10 3.33301 -28.333 11 -55 23c-15.333 7.33301 -26 12 -32 14c-11.333 4 -23 6 -35 6c-14.667 0 -30.167 -3.83301 -46.5 -11.5
s-30.5 -20.5 -42.5 -38.5l-60 45c21.333 33.333 42.333 57.666 63 72.999c24.667 18.667 52.667 28 84 28c22.667 0 45 -3.66699 67 -11c9.33301 -3.33301 24.333 -9.66602 45 -18.999c32.667 -15.333 57.334 -23 74.001 -23c14.667 0 29 3.33301 43 10
c18.667 8.66699 34 22 46 40z" />
    <glyph glyph-name="c128" horiz-adv-x="785" 
d="M740 229c0 -88 -19.665 -150.667 -58.998 -188c-34.667 -32.667 -88.334 -49 -161.001 -49c-30 0 -60 2.66699 -90 8l10 107c11.333 -4 25.5 -6.66699 42.5 -8s25.833 -2 26.5 -2c22.667 0 41 7.33301 55 22c20 21.333 30 56.333 30 105c0 45.333 -13 77.333 -39 96
c-18 12.667 -42 19 -72 19c-22.667 0 -46.667 -4 -72 -12s-49.333 -19 -72 -33v-294h-142v576h-177v124h552v-124h-233v-176c53.333 32.667 113.666 49 180.999 49c71.333 0 125.833 -18.833 163.5 -56.5s56.5 -92.167 56.5 -163.5z" />
    <glyph glyph-name="c129" horiz-adv-x="510" 
d="M500 576h-288v-576h-142v700h430v-124z" />
    <glyph glyph-name="c141" horiz-adv-x="662" 
d="M655 0h-180l-260 348l-3 -348h-142v700h142v-299l256 299h169l-292 -317z" />
    <glyph glyph-name="c142" horiz-adv-x="792" 
d="M742 0h-142v238c0 24 -4.33301 43.667 -13 59c-18 31.333 -50.667 47 -98 47c-22 0 -46 -3.83301 -72 -11.5s-52.333 -19.5 -79 -35.5v-297h-142v576h-176v124h550v-124h-232v-174c31.333 16 63.833 28.667 97.5 38s66.834 14 99.501 14
c65.333 0 116.166 -15.5 152.499 -46.5s54.5 -74.167 54.5 -129.5v-278z" />
    <glyph glyph-name="c143" horiz-adv-x="701" 
d="M631 0h-210v-135h-141v135h-210v700h142v-585h277v585h142v-700z" />
    <glyph glyph-name="c144" horiz-adv-x="666" 
d="M606 230c0 -120.667 -13.667 -213.001 -41 -277.001c-32 -74.667 -89 -131.667 -171 -171l-58 105c58 24 95.667 66.667 113 128c11.333 40 17 109.667 17 209c0 54 -4.66699 95 -14 123c-16 46.667 -45.667 70 -89 70c-33.333 0 -60.666 -12.667 -81.999 -38
s-32 -57.666 -32 -96.999v-282h-136v592h-83v85h83v71h136v-71h218v-85h-218v-68l-2 -82c21.333 32.667 49.333 56 84 70c23.333 9.33301 48 14 74 14c81.333 0 137.666 -33 168.999 -99c21.333 -45.333 32 -111 32 -197z" />
    <glyph glyph-name="c157" horiz-adv-x="556" 
d="M551 0h-171l-174 248h-5v-248h-136v518h136v-235h5l166 235h152l-192 -245z" />
    <glyph glyph-name="c158" horiz-adv-x="655" 
d="M595 0h-135.998v313c0 34 -8.83301 59.5 -26.5 76.5s-40.167 25.5 -67.5 25.5c-30.667 0 -57 -11.333 -79 -34c-24.667 -25.333 -37 -59.333 -37 -102v-279h-136v592h-83v85h83v73h136v-73h218v-85h-218v-75l-5 -80c23.333 34 52.666 58.333 87.999 73
c25.333 10.667 51.666 16 78.999 16c54.667 0 99 -14.333 133 -43s51 -68.667 51 -120v-363z" />
    <glyph glyph-name="nonbreakingspace" unicode="&#xa0;" horiz-adv-x="500" 
 />
    <glyph glyph-name="exclamdown" unicode="&#xa1;" horiz-adv-x="664" 
d="M522 866c-13.333 -32 -31 -57.332 -53 -75.999c-33.333 -27.333 -77.333 -41 -132 -41c-54 0 -97.667 13.667 -131 41c-24 19.333 -42 44.666 -54 75.999l73 39c10.667 -27.333 29.334 -46 56.001 -56c15.333 -6 34 -9 56 -9c29.333 0 53.166 5.5 71.499 16.5
s31.833 27.167 40.5 48.5zM649 700.001l-280 -596.001c-18.667 -40.667 -42.834 -69.5 -72.501 -86.5s-67.167 -25.5 -112.5 -25.5c-13.333 0 -27.666 2.16699 -42.999 6.5s-30 9.5 -44 15.5l16 106c20 -10 40 -15 60 -15c18.667 0 32.667 2 42 6
c16 6.66699 28.333 20.334 37 41.001l20 47l-257 501h159l139 -298l30 -74l33 75l133 297h140z" />
    <glyph glyph-name="cent" unicode="&#xa2;" horiz-adv-x="566" 
d="M449 717c-15.333 -28 -34.334 -49.999 -57.001 -65.999c-30 -21.333 -66 -32 -108 -32c-41.333 0 -77 10.333 -107 31c-23.333 16 -42.666 38.333 -57.999 67l50 46c15.333 -22.667 34.666 -38.334 57.999 -47.001c16 -6 35 -9 57 -9c22.667 0 41.334 2.66699 56.001 8
c24 8.66699 43.667 24.667 59 48zM555.999 518.001l-218.998 -581c-18.667 -48.667 -39.334 -84 -62.001 -106c-36 -34.667 -86 -52 -150 -52c-25.333 0 -52 4.66699 -80 14l10 101c10 -4 19.167 -6.83301 27.5 -8.5s17.166 -2.5 26.499 -2.5c24 0 43.5 4.33301 58.5 13
s26.833 23.667 35.5 45l12 30l-205 547h151l98 -288l31 -97l34 103l94 282h138z" />
    <glyph glyph-name="sterling" unicode="&#xa3;" horiz-adv-x="379" 
d="M309 203c0 -80 -17.002 -136.333 -51.002 -169c-29.333 -28 -72.666 -42 -129.999 -42c-20.667 0 -39.667 1.16699 -57 3.5s-34.333 5.5 -51 9.5v114c26.667 -6 49.334 -9 68.001 -9c29.333 0 50.333 9.33301 63 28c10.667 16 16 41 16 75v487h142v-497z" />
    <glyph glyph-name="currency" unicode="&#xa4;" horiz-adv-x="760" 
d="M700 80l-80.001 -79.999l-82 83c-16.667 -12 -35 -21.667 -55 -29c-33.333 -12.667 -67.666 -19 -102.999 -19c-37.333 0 -71.666 6 -102.999 18c-20.667 8 -39 18 -55 30l-83 -83l-79 80l83 82c-12 16.667 -21.667 35 -29 55c-12.667 33.333 -19 67.666 -19 102.999
c0 37.333 6 71.666 18 102.999c8 20.667 18 39 30 55l-83 83l79 80l84 -83c14.667 10.667 32.667 20 54 28c33.333 12.667 67.666 19 102.999 19c55.333 0 107.666 -15.667 156.999 -47l83 83l80 -80l-83 -83c10.667 -14.667 20.334 -33 29.001 -55
c12.667 -33.333 19 -67.666 19 -102.999c0 -36 -6 -70 -18 -102c-7.33301 -19.333 -17.333 -38 -30 -56zM549.999 320.001c0 46.667 -16.667 86.667 -50 120s-73.333 50 -120 50s-86.667 -16.667 -120 -50s-50 -73.333 -50 -120s16.667 -86.667 50 -120s73.333 -50 120 -50
s86.667 16.667 120 50s50 73.333 50 120z" />
    <glyph glyph-name="yen" unicode="&#xa5;" horiz-adv-x="510" 
d="M500 576h-288v-576h-142v700h288v139h142v-263z" />
    <glyph glyph-name="brokenbar" unicode="&#xa6;" horiz-adv-x="260" 
d="M200 376h-140v142h140v-142zM200 0h-140v142h140v-142z" />
    <glyph glyph-name="section" unicode="&#xa7;" horiz-adv-x="624" 
d="M564 245c0 -26 -5.33398 -51.3291 -16.001 -75.9961c-17.333 -40.667 -47.333 -77 -90 -109c15.333 -15.333 26.666 -31.666 33.999 -48.999s11 -37.333 11 -60c0 -64.667 -25.667 -110.667 -77 -138c-36 -19.333 -83 -29 -141 -29c-24.667 0 -50.667 2.33301 -78 7
s-56 14 -86 28l13 100c30.667 -12 56.334 -20.833 77.001 -26.5s43.667 -8.5 69 -8.5c34.667 0 60.334 7.33301 77.001 22c13.333 11.333 20 24.666 20 39.999c0 23.333 -13.333 44.333 -40 63c-7.33301 5.33301 -37.333 21.666 -90 48.999c-64 34 -109 64.333 -135 91
c-34.667 35.333 -52 77 -52 125c0 38.667 11.333 74 34 106c19.333 27.333 44.666 49.666 75.999 66.999c-11.333 9.33301 -20.333 21.333 -27 36c-10.667 22 -16 48 -16 78c0 42 17.667 77.333 53 106c38.667 31.333 89.334 47 152.001 47c24.667 0 50.667 -2.33301 78 -7
s58 -14.334 92 -29.001l-12 -100c-44 14 -76.833 23.333 -98.5 28s-40.834 7 -57.501 7c-23.333 0 -43.5 -4.66699 -60.5 -14s-25.5 -22 -25.5 -38c0 -24 14 -46 42 -66c14.667 -10 42.334 -24.333 83.001 -43c82.667 -38 135.167 -71.333 157.5 -100
s33.5 -64.334 33.5 -107.001zM422.999 242.004c0 33.333 -22.667 63.332 -68 89.999c-5.33301 3.33301 -37.333 20 -96 50c-16.667 -13.333 -30 -27.666 -40 -42.999c-12 -18.667 -18 -37 -18 -55c0 -36.667 20 -68.667 60 -96c8.66699 -6 44 -26.667 106 -62
c37.333 32 56 70.667 56 116z" />
    <glyph glyph-name="dieresis" unicode="&#xa8;" horiz-adv-x="538" 
d="M455 798h-115v115h115v-115zM226 798h-115v115h115v-115zM488 0h-418v700h418v-124h-276v-158h251v-115h-251v-179h276v-124z" />
    <glyph glyph-name="copyright" unicode="&#xa9;" horiz-adv-x="836" 
d="M776 350c0 -99.333 -34.833 -183.833 -104.5 -253.5s-154.167 -104.5 -253.5 -104.5c-98.667 0 -183 35 -253 105s-105 154.333 -105 253s35 183 105 253s154.333 105 253 105c98 0 182.167 -35.167 252.5 -105.5s105.5 -154.5 105.5 -252.5zM693 350
c0 76 -26.833 140.833 -80.5 194.5s-118.5 80.5 -194.5 80.5s-140.833 -26.833 -194.5 -80.5s-80.5 -118.5 -80.5 -194.5s26.833 -140.833 80.5 -194.5s118.5 -80.5 194.5 -80.5s140.833 26.833 194.5 80.5s80.5 118.5 80.5 194.5zM525 183
c-28 -10.667 -57.002 -16 -87.002 -16c-68.667 0 -118.667 23 -150 69c-22.667 32.667 -34 73.667 -34 123c0 45.333 12.667 84 38 116c32.667 40.667 81.334 61 146.001 61c12 0 24.167 -0.5 36.5 -1.5s27.5 -4.5 45.5 -10.5l-4 -67c-7.33301 2.66699 -18 5 -32 7
s-26 3 -36 3c-23.333 0 -43.666 -7 -60.999 -21c-24 -19.333 -36 -48.333 -36 -87s9.16699 -68.667 27.5 -90s41.833 -32 70.5 -32c24.667 0 48.667 5 72 15z" />
    <glyph glyph-name="ordfeminine" unicode="&#xaa;" horiz-adv-x="635" 
d="M590 22c-30.667 -10.667 -61.167 -18.334 -91.5 -23.001s-60.166 -7 -89.499 -7c-98.667 0 -181 27 -247 81c-78 63.333 -117 154.333 -117 273c0 112.667 36.167 201.167 108.5 265.5s166.166 96.5 281.499 96.5c29.333 0 55.833 -1.66699 79.5 -5
s48.834 -9.66602 75.501 -18.999l-6 -120c-21.333 8.66699 -43.5 15.167 -66.5 19.5s-47.167 6.5 -72.5 6.5c-67.333 0 -122.333 -16.667 -165 -50c-38.667 -30 -64.334 -70.667 -77.001 -122h284v-115h-289c5.33301 -54 26.666 -98.333 63.999 -133
c42.667 -40 100.334 -60 173.001 -60c26.667 0 52 2.5 76 7.5s47.333 12.833 70 23.5z" />
    <glyph glyph-name="guillemotleft" unicode="&#xab;" horiz-adv-x="588" 
d="M548 104h-141l-121 211l121 203h141l-121 -203zM302 104h-141l-121 211l121 203h141l-121 -203z" />
    <glyph glyph-name="logicalnot" unicode="&#xac;" horiz-adv-x="756" 
d="M686 190h-115v145h-501v125h616v-270z" />
    <glyph glyph-name="minus" unicode="&#xad;" horiz-adv-x="523" 
d="M463 234h-403v117h403v-117z" />
    <glyph glyph-name="registered" unicode="&#xae;" horiz-adv-x="836" 
d="M776 350c0 -99.333 -34.833 -183.833 -104.5 -253.5s-154.167 -104.5 -253.5 -104.5c-98.667 0 -183 35 -253 105s-105 154.333 -105 253s35 183 105 253s154.333 105 253 105c98 0 182.167 -35.167 252.5 -105.5s105.5 -154.5 105.5 -252.5zM693 350
c0 76 -26.833 140.833 -80.5 194.5s-118.5 80.5 -194.5 80.5s-140.833 -26.833 -194.5 -80.5s-80.5 -118.5 -80.5 -194.5s26.833 -140.833 80.5 -194.5s118.5 -80.5 194.5 -80.5s140.833 26.833 194.5 80.5s80.5 118.5 80.5 194.5zM591 166l-96.9961 -0.000976562l-47 116
c-2.66699 6 -6.33398 11.333 -11.001 16c-9.33301 8.66699 -21.333 13 -36 13h-28v-145h-89v365h159c39.333 0 69.666 -9.16699 90.999 -27.5s32 -42.166 32 -71.499c0 -24 -6.83301 -43.167 -20.5 -57.5s-30.5 -23.5 -50.5 -27.5
c9.33301 -2.66699 17.666 -8.66699 24.999 -18s11.666 -16.333 12.999 -21zM473.004 423.999c0 12.667 -5.5 22.168 -16.5 28.501s-26.167 9.5 -45.5 9.5h-39v-82h39c24.667 0 42 5.33301 52 16c6.66699 7.33301 10 16.666 10 27.999z" />
    <glyph glyph-name="macron" unicode="&#xaf;" horiz-adv-x="422" 
d="M377 749h-135v126h135v-126zM180 749h-135v126h135v-126zM282 0h-142v700h142v-700z" />
    <glyph glyph-name="degree" unicode="&#xb0;" horiz-adv-x="280" 
d="M250 676c0 -30 -10.833 -55.833 -32.5 -77.5s-47.5 -32.5 -77.5 -32.5s-55.833 10.833 -77.5 32.5s-32.5 47.5 -32.5 77.5s10.833 55.833 32.5 77.5s47.5 32.5 77.5 32.5s55.833 -10.833 77.5 -32.5s32.5 -47.5 32.5 -77.5zM190 676c0 13.333 -5 25 -15 35
s-21.667 15 -35 15s-25 -5 -35 -15s-15 -21.667 -15 -35s5 -25 15 -35s21.667 -15 35 -15s25 5 35 15s15 21.667 15 35z" />
    <glyph glyph-name="plusminus" unicode="&#xb1;" horiz-adv-x="628" 
d="M573 304h-214v-164h-90v164h-214v90h214v214h90v-214h214v-90zM573 0h-518v90h518v-90z" />
    <glyph glyph-name="twosuperior" unicode="&#xb2;" horiz-adv-x="282" 
d="M212 0h-142v700h142v-700z" />
    <glyph glyph-name="threesuperior" unicode="&#xb3;" horiz-adv-x="270" 
d="M205 595h-140v140h140v-140zM203 0h-136v518h136v-518z" />
    <glyph glyph-name="acute" unicode="&#xb4;" horiz-adv-x="441" 
d="M426 413h-230v-413h-136v518h236v122h129z" />
    <glyph glyph-name="mu" unicode="&#xb5;" horiz-adv-x="577" 
d="M542 0l-131.001 0.000976562v81c-14 -25.333 -30.667 -45.333 -50 -60c-25.333 -19.333 -54.333 -29 -87 -29c-46.667 0 -77 21.333 -91 64h-4l17 -270h-136v732h136v-313c0 -38.667 9.66699 -66.334 29 -83.001c14.667 -12.667 34.334 -19 59.001 -19
c34 0 62.833 12.5 86.5 37.5s35.5 59.5 35.5 103.5v274h136v-518z" />
    <glyph glyph-name="paragraph" unicode="&#xb6;" horiz-adv-x="572" 
d="M502 -219h-95v919h95v-919zM318 -219h-94.999v619c-56.667 0 -101.334 16 -134.001 48c-29.333 28.667 -44 62.667 -44 102c0 40 13.333 73.667 40 101c31.333 32.667 75.333 49 132 49h101v-919z" />
    <glyph glyph-name="cedilla" unicode="&#xb8;" horiz-adv-x="565" 
d="M439 599h-121v116h121v-116zM248 599h-121v116h121v-116zM530 218l-353 -0.00195312c0 -36 12.667 -65.667 38 -89c28 -26 66.667 -39 116 -39c30.667 0 58.334 2.83301 83.001 8.5s51 14.834 79 27.501v-102c-25.333 -9.33301 -54.333 -17 -87 -23
s-63.334 -9 -92.001 -9c-82.667 0 -148.667 21.333 -198 64c-54 46.667 -81 114.334 -81 203.001c0 80.667 25.333 146 76 196c48 47.333 108 71 180 71c78 0 137.333 -25 178 -75s61 -117.333 61 -202v-31zM390 310.998c0 40.667 -11.333 71.667 -34 93
c-20 18.667 -44.333 28 -73 28c-29.333 0 -54.333 -11.667 -75 -35s-31 -52 -31 -86h213z" />
    <glyph glyph-name="onesuperior" unicode="&#xb9;" horiz-adv-x="1036" 
d="M986 410c0 -44 -10.333 -79.999 -31 -107.999c-24 -32 -58 -48 -102 -48s-77.167 15 -99.5 45s-33.5 67 -33.5 111c0 45.333 10.333 81.666 31 108.999c23.333 31.333 57.333 47 102 47c43.333 0 77 -15.667 101 -47c21.333 -28 32 -64.333 32 -109zM986 35.001h-266v79
h266v-79zM657 0.000976562h-175l-244 458l-35 78v-124v-412h-133v700h175l242 -441l37 -95v124v412h133v-700zM895 410.001c0 32 -1.66699 54.667 -5 68c-6 24 -18.333 36 -37 36c-22 0 -35.333 -17 -40 -51c-1.33301 -10 -2 -27.667 -2 -53
c0 -31.333 1.66699 -53.666 5 -66.999c6 -24.667 18.333 -37 37 -37s31 12.333 37 37c3.33301 13.333 5 35.666 5 66.999z" />
    <glyph glyph-name="ordmasculine" unicode="&#xba;" horiz-adv-x="477" 
d="M439 12c-43.333 -13.333 -90.335 -19.999 -141.002 -19.999c-88 0 -155.333 27.667 -202 83c-40.667 48.667 -61 112 -61 190c0 81.333 22.833 145.166 68.5 191.499s106.167 69.5 181.5 69.5c24 0 48.833 -2 74.5 -6s50.5 -9.33301 74.5 -16l-9 -101
c-16.667 6.66699 -34.5 12.5 -53.5 17.5s-37.167 7.5 -54.5 7.5c-39.333 0 -71.666 -10.333 -96.999 -31s-39.666 -48.334 -42.999 -83.001h173v-90h-173c0 -38 13.5 -69.833 40.5 -95.5s61.167 -38.5 102.5 -38.5c18.667 0 37 1.83301 55 5.5s36.667 9.83398 56 18.501z
" />
    <glyph glyph-name="guillemotright" unicode="&#xbb;" horiz-adv-x="588" 
d="M548 315l-121 -211h-141l121 211l-121 203h141zM302 315l-121 -211h-141l121 211l-121 203h141z" />
    <glyph glyph-name="onequarter" unicode="&#xbc;" horiz-adv-x="260" 
d="M200 606h-140v126h140v-126zM198 -41c0 -53.333 -7.66602 -93.333 -22.999 -120c-24 -41.333 -69 -62 -135 -62c-10.667 0 -20.834 0.833008 -30.501 2.5s-19.5 3.5 -29.5 5.5v96c10 -2.66699 21.667 -4 35 -4c19.333 0 32 6.5 38 19.5s9 32.167 9 57.5v564h136v-559z
" />
    <glyph glyph-name="onehalf" unicode="&#xbd;" horiz-adv-x="552" 
d="M502 196c0 -59.333 -21.6709 -107.334 -65.0039 -144.001c-47.333 -40 -114.666 -60 -201.999 -60c-32 0 -62.833 3 -92.5 9s-59.5 14.667 -89.5 26l15 122c28 -12.667 57.667 -22.834 89 -30.501s59.333 -11.5 84 -11.5c35.333 0 62.833 8.5 82.5 25.5
s29.5 36.5 29.5 58.5c0 36 -22.667 66 -68 90l-73 35c-58 28.667 -98 55 -120 79c-28 30.667 -42 69.334 -42 116.001c0 48 13.667 89.333 41 124c38.667 48.667 98.334 73 179.001 73c36.667 0 71.334 -2.16699 104.001 -6.5s64.667 -12.166 96 -23.499l-15 -112
c-21.333 8.66699 -46.166 16.5 -74.499 23.5s-54.5 10.5 -78.5 10.5c-38.667 0 -67 -8.66699 -85 -26c-13.333 -12.667 -20 -28.667 -20 -48c0 -24.667 10 -46 30 -64c12.667 -11.333 33.667 -23.333 63 -36c74.667 -32 124.667 -59 150 -81c41.333 -36 62 -85.667 62 -149z
" />
    <glyph glyph-name="threequarters" unicode="&#xbe;" horiz-adv-x="454" 
d="M414 152c0 -45.333 -16 -82.3311 -48 -110.998c-36 -32.667 -87.333 -49 -154 -49c-26.667 0 -55.167 2.66699 -85.5 8s-59.166 12.666 -86.499 21.999l6 106c24 -10 49 -18.333 75 -25s49.667 -10 71 -10c30.667 0 53.667 6.66699 69 20c11.333 10 17 22 17 36
c0 25.333 -19.333 45.666 -58 60.999l-63 24c-36 15.333 -62 32 -78 50c-20 22.667 -30 52.334 -30 89.001c0 38 12.333 70.667 37 98c33.333 36.667 84 55 152 55c28.667 0 55.167 -1 79.5 -3s53.166 -8.33301 86.499 -19l-12 -98c-22 8 -43.333 14.167 -64 18.5
s-38.667 6.5 -54 6.5c-37.333 0 -63.333 -7.33301 -78 -22c-8.66699 -8.66699 -13 -19.334 -13 -32.001c0 -19.333 10 -34.333 30 -45c7.33301 -4 29.333 -12 66 -24s65.667 -27.333 87 -46c32 -28 48 -64.667 48 -110z" />
    <glyph glyph-name="questiondown" unicode="&#xbf;" horiz-adv-x="460" 
d="M400 595h-135v140h135v-140zM195 595h-135v140h135v-140zM298 0h-136v518h136v-518z" />
    <glyph glyph-name="Agrave" unicode="&#xc0;" horiz-adv-x="749" 
d="M734 0h-160l-59 157h-289l-59 -157h-152l279 700h162zM473 273l-103 286l-99 -286h202z" />
    <glyph glyph-name="Aacute" unicode="&#xc1;" horiz-adv-x="635" 
d="M575 204c0 -49.333 -16.332 -92.333 -48.999 -129c-44.667 -50 -111.334 -75 -200.001 -75h-256v700h448v-124h-306v-146h114c92 0 159.333 -26.333 202 -79c31.333 -38.667 47 -87.667 47 -147zM425.001 215c0 34.667 -10.833 60.834 -32.5 78.501
s-52.5 26.5 -92.5 26.5h-88v-210h88c40.667 0 71.667 8.66699 93 26s32 43.666 32 78.999z" />
    <glyph glyph-name="Acircumflex" unicode="&#xc2;" horiz-adv-x="626" 
d="M566 197c0 -54 -17.668 -97.666 -53.001 -130.999c-46.667 -44 -120.667 -66 -222 -66h-221v700h230c70.667 0 126.334 -14 167.001 -42c44 -30.667 66 -74.334 66 -131.001c0 -47.333 -12.667 -85.333 -38 -114c-19.333 -22 -44.666 -37.667 -75.999 -47
c45.333 -8 81.166 -27.167 107.499 -57.5s39.5 -67.5 39.5 -111.5zM389.999 503.001c0 20.667 -5.33398 37.668 -16.001 51.001c-18.667 24 -51.667 36 -99 36h-63v-174h69c40.667 0 70.334 10.667 89.001 32c13.333 15.333 20 33.666 20 54.999zM415.998 208.002
c0 29.333 -8.33301 52 -25 68c-20.667 20 -54 30 -100 30h-79v-196h79c42 0 74 10 96 30c19.333 17.333 29 40 29 68z" />
    <glyph glyph-name="Atilde" unicode="&#xc3;" horiz-adv-x="510" 
d="M500 576h-288v-576h-142v700h430v-124z" />
    <glyph glyph-name="Adieresis" unicode="&#xc4;" horiz-adv-x="741" 
d="M721 -147h-140v147h-421v-147h-140v271h80c33.333 56 56.333 113.667 69 173c10.667 49.333 16 109 16 179v224h456v-576h80v-271zM499 124v452h-179v-100c0 -78 -4 -139.667 -12 -185c-10.667 -59.333 -30.667 -115 -60 -167h251z" />
    <glyph glyph-name="Aring" unicode="&#xc5;" horiz-adv-x="538" 
d="M488 0h-418v700h418v-124h-276v-158h251v-115h-251v-179h276v-124z" />
    <glyph glyph-name="AE" unicode="&#xc6;" horiz-adv-x="978" 
d="M971 0h-180l-228 348l-3 -348h-142v348l-231 -348h-180l276 383l-272 317h169l235 -299l3 299h142v-299l238 299h169l-272 -317z" />
    <glyph glyph-name="Ccedilla" unicode="&#xc7;" horiz-adv-x="596" 
d="M541 185c0 -72 -34.3359 -124.331 -103.003 -156.998c-50 -24 -111 -36 -183 -36c-44.667 0 -88 6 -130 18c-4.66699 1.33301 -29.667 9.66602 -75 24.999l11 119c40.667 -18 80.334 -31 119.001 -39c26 -5.33301 48.667 -8 68 -8c48.667 0 85 10.667 109 32
c19.333 17.333 29 37.666 29 60.999c0 44.667 -19.333 75.667 -58 93c-21.333 9.33301 -47.333 14 -78 14h-85v115h85c36 0 63.667 8 83 24s29 38 29 66c0 22.667 -7.66699 41 -23 55c-19.333 17.333 -49.333 26 -90 26c-54 0 -107.667 -12.667 -161 -38l-14 118
c36.667 12 70.334 20.833 101.001 26.5s65.334 8.5 104.001 8.5c78 0 137.167 -16 177.5 -48s60.5 -74.667 60.5 -128c0 -38 -9.66699 -71.333 -29 -100s-48.333 -48 -87 -58c41.333 -8.66699 74 -27.334 98 -56.001c28 -33.333 42 -77.666 42 -132.999z" />
    <glyph glyph-name="Egrave" unicode="&#xc8;" horiz-adv-x="747" 
d="M677 0h-142v361l3 169l-51 -106l-247 -424h-170v700h142v-360l-3 -170l53 102l245 428h170v-700z" />
    <glyph glyph-name="Eacute" unicode="&#xc9;" horiz-adv-x="747" 
d="M551 866c-13.333 -32 -31 -57.332 -53 -75.999c-33.333 -27.333 -77.333 -41 -132 -41c-54 0 -97.667 13.667 -131 41c-24 19.333 -42 44.666 -54 75.999l73 39c10.667 -27.333 29.334 -46 56.001 -56c15.333 -6 34 -9 56 -9c29.333 0 53.166 5.5 71.499 16.5
s31.833 27.167 40.5 48.5zM677 0.000976562h-142v361l3 169l-51 -106l-247 -424h-170v700h142v-360l-3 -170l53 102l245 428h170v-700z" />
    <glyph glyph-name="Ecircumflex" unicode="&#xca;" horiz-adv-x="662" 
d="M655 0h-180l-260 348l-3 -348h-142v700h142v-299l256 299h169l-292 -317z" />
    <glyph glyph-name="Edieresis" unicode="&#xcb;" horiz-adv-x="679" 
d="M609 0l-142 -0.00292969v576h-185v-140c0 -108.667 -2 -181.667 -6 -219c-8 -72.667 -25.333 -126.667 -52 -162c-32 -42 -80.667 -63 -146 -63c-12.667 0 -23.667 0.5 -33 1.5s-21 3.16699 -35 6.5l6 111c3.33301 -0.666992 9.5 -1.66699 18.5 -3s15.5 -2 19.5 -2
c40 0 67 27.333 81 82c10 38.667 15 100.334 15 185.001v12c0 12.667 -0.166992 25.334 -0.5 38.001s-0.5 25.334 -0.5 38.001v11v228h460v-700z" />
    <glyph glyph-name="Igrave" unicode="&#xcc;" horiz-adv-x="965" 
d="M895 0h-142v492l2 108l-35 -100l-170 -500h-135l-170 500l-32 100l-1 -108v-492h-142v700h240l140 -407l31 -124l34 124l140 407h240v-700z" />
    <glyph glyph-name="Iacute" unicode="&#xcd;" horiz-adv-x="708" 
d="M638 0h-142v303h-284v-303h-142v700h142v-282h284v282h142v-700z" />
    <glyph glyph-name="Icircumflex" unicode="&#xce;" horiz-adv-x="776" 
d="M731 350c0 -118.667 -35.333 -210 -106 -274c-62 -56 -141 -84 -237 -84s-174.667 27.667 -236 83c-71.333 64 -107 155.667 -107 275c0 118.667 35.333 210 106 274c62 56 141 84 237 84s174.667 -27.667 236 -83c71.333 -64 107 -155.667 107 -275zM581 350
c0 102.667 -25.333 175.334 -76 218.001c-32 26.667 -71 40 -117 40c-45.333 0 -84 -13.333 -116 -40c-51.333 -42.667 -77 -115.334 -77 -218.001s25.333 -175.334 76 -218.001c32 -26.667 71 -40 117 -40c45.333 0 84 13.333 116 40c51.333 42.667 77 115.334 77 218.001z
" />
    <glyph glyph-name="Idieresis" unicode="&#xcf;" horiz-adv-x="701" 
d="M631 0h-142v585h-277v-585h-142v700h561v-700z" />
    <glyph glyph-name="Eth" unicode="&#xd0;" horiz-adv-x="586" 
d="M546 481c0 -54.667 -18 -102.333 -54 -143c-44.667 -50 -107.667 -75 -189 -75h-91v-263h-142v700h207c84.667 0 150.667 -19.5 198 -58.5s71 -92.5 71 -160.5zM396 485.001c0 31.333 -9.33398 56 -28.001 74c-21.333 20.667 -51.666 31 -90.999 31h-65v-217h65
c40 0 70.667 12 92 36c18 20 27 45.333 27 76z" />
    <glyph glyph-name="Ntilde" unicode="&#xd1;" horiz-adv-x="630" 
d="M590 22c-30.667 -10.667 -61.168 -18.334 -91.501 -23.001s-60.166 -7 -89.499 -7c-98.667 0 -181 27 -247 81c-78 63.333 -117 154.333 -117 273c0 116 37.333 206.333 112 271c70 60.667 162.667 91 278 91c30 0 56.167 -1.66699 78.5 -5s47.833 -9.66602 76.5 -18.999
l-6 -120c-21.333 8.66699 -43.5 15.167 -66.5 19.5s-47.167 6.5 -72.5 6.5c-77.333 0 -138.333 -22 -183 -66s-67 -102.667 -67 -176c0 -80 24 -140.667 72 -182c43.333 -37.333 99.333 -56 168 -56c29.333 0 55.5 2.66699 78.5 8s45.5 13 67.5 23z" />
    <glyph glyph-name="Ograve" unicode="&#xd2;" horiz-adv-x="576" 
d="M561 576h-202v-576h-142v576h-202v124h546v-124z" />
    <glyph glyph-name="Oacute" unicode="&#xd3;" horiz-adv-x="654" 
d="M644 700l-280.001 -596.001c-19.333 -40.667 -42.166 -69.5 -68.499 -86.5s-58.833 -25.5 -97.5 -25.5c-17.333 0 -35 1.83301 -53 5.5s-35.667 9.16699 -53 16.5l16 106c20 -10 40 -15 60 -15c18.667 0 32.667 2 42 6c16 6.66699 28.333 20.334 37 41.001l20 47
l-257 501h159l139 -298l30 -74l33 75l133 297h140z" />
    <glyph glyph-name="Ocircumflex" unicode="&#xd4;" horiz-adv-x="958" 
d="M903 350c0 -93.333 -31.667 -167.666 -95 -222.999c-58.667 -51.333 -130.667 -77 -216 -77h-42v-90h-142v90h-42c-85.333 0 -157 25.333 -215 76c-64 56 -96 130.667 -96 224s31.667 167.666 95 222.999c58.667 51.333 130.667 77 216 77h42v90h142v-90h42
c85.333 0 157 -25.333 215 -76c64 -56 96 -130.667 96 -224zM753 350c0 62 -17 110.001 -51 144.001c-30.667 30.667 -71.334 46 -122.001 46h-30v-380h30c50.667 0 91.334 15 122.001 45c34 33.333 51 81.666 51 144.999zM408 160.001v379.999h-30
c-50.667 0 -91.334 -15 -122.001 -45c-34 -33.333 -51 -81.666 -51 -144.999c0 -62 17 -110 51 -144c30.667 -30.667 71.334 -46 122.001 -46h30z" />
    <glyph glyph-name="Otilde" unicode="&#xd5;" horiz-adv-x="699" 
d="M679 0h-168l-134 222l-30 54l-33 -54l-139 -222h-155l234 366l-213 334h168l112 -195l32 -59l35 59l115 195h155l-213 -334z" />
    <glyph glyph-name="Odieresis" unicode="&#xd6;" horiz-adv-x="739" 
d="M719 -144h-129v144h-520v700h142v-576h284v576h142v-576h81v-268z" />
    <glyph glyph-name="multiply" unicode="&#xd7;" horiz-adv-x="671" 
d="M601 0h-142v249c-22.667 -4.66699 -43.667 -8.16699 -63 -10.5s-42 -3.5 -68 -3.5c-108.667 0 -185 21.667 -229 65c-32.667 32 -49 79.333 -49 142v258h142v-239c0 -34 5.66699 -58.333 17 -73c19.333 -25.333 59 -38 119 -38c21.333 0 40 0.833008 56 2.5
s41 6.5 75 14.5v333h142v-700z" />
    <glyph glyph-name="Oslash" unicode="&#xd8;" horiz-adv-x="1038" 
d="M968 0h-898v700h142v-576h236v576h142v-576h236v576h142v-700z" />
    <glyph glyph-name="Ugrave" unicode="&#xd9;" horiz-adv-x="1067" 
d="M1047 -150h-133v150h-844v700h142v-576h236v576h142v-576h236v576h142v-576h79v-274z" />
    <glyph glyph-name="Uacute" unicode="&#xda;" horiz-adv-x="714" 
d="M669 226c0 -62.667 -18.333 -113.668 -55 -153.001c-45.333 -48.667 -114.333 -73 -207 -73h-236v576h-151v124h293v-262h98c80.667 0 143 -18.333 187 -55c47.333 -39.333 71 -91.666 71 -156.999zM524 218.999c0 28.667 -8 52.333 -24 71
c-22 25.333 -56.667 38 -104 38h-83v-218h94c34 0 62 9.66699 84 29s33 46 33 80z" />
    <glyph glyph-name="Ucircumflex" unicode="&#xdb;" horiz-adv-x="880" 
d="M810 0h-142v700h142v-700zM568 226c0 -62.667 -18.333 -113.668 -55 -153.001c-45.333 -48.667 -114.333 -73 -207 -73h-236v700h142v-262h98c80.667 0 143 -18.333 187 -55c47.333 -39.333 71 -91.666 71 -156.999zM423 218.999c0 28.667 -8 52.333 -24 71
c-22 25.333 -56.667 38 -104 38h-83v-218h94c34 0 62 9.66699 84 29s33 46 33 80z" />
    <glyph glyph-name="Udieresis" unicode="&#xdc;" horiz-adv-x="613" 
d="M568 226c0 -62.667 -18.333 -113.668 -55 -153.001c-45.333 -48.667 -114.333 -73 -207 -73h-236v700h142v-262h98c80.667 0 143 -18.333 187 -55c47.333 -39.333 71 -91.666 71 -156.999zM423 218.999c0 28.667 -8 52.333 -24 71c-22 25.333 -56.667 38 -104 38h-83
v-218h94c34 0 62 9.66699 84 29s33 46 33 80z" />
    <glyph glyph-name="Yacute" unicode="&#xdd;" horiz-adv-x="640" 
d="M595 361c0 -112.667 -32.666 -202.333 -97.999 -269s-157 -100 -275 -100c-62.667 0 -125 11 -187 33l17 118c33.333 -14 67 -24 101 -30c24 -4 48.667 -6 74 -6c69.333 0 123.666 19 162.999 57c36.667 35.333 55 81.666 55 138.999h-294v115h294
c-7.33301 46.667 -25.333 84.334 -54 113.001c-40.667 41.333 -100.334 62 -179.001 62c-51.333 0 -101.666 -9 -150.999 -27l-11 112c29.333 10 59.333 17.5 90 22.5s65 7.5 103 7.5c106.667 0 192 -31 256 -93s96 -146.667 96 -254z" />
    <glyph glyph-name="Thorn" unicode="&#xde;" horiz-adv-x="1045" 
d="M1000 350c0 -118.667 -35.333 -210 -106 -274c-62 -56 -141 -84 -237 -84c-99.333 0 -181 29.333 -245 88s-96 131.667 -96 219h-104v-299h-142v700h142v-286h104c8 88 44 159 108 213s141.667 81 233 81c96 0 174.667 -27.667 236 -83c71.333 -64 107 -155.667 107 -275
zM850 350c0 102.667 -25.333 175.334 -76 218.001c-32 26.667 -71 40 -117 40c-45.333 0 -84 -13.333 -116 -40c-51.333 -42.667 -77 -115.334 -77 -218.001s25.333 -175.334 76 -218.001c32 -26.667 71 -40 117 -40c45.333 0 84 13.333 116 40
c51.333 42.667 77 115.334 77 218.001z" />
    <glyph glyph-name="germandbls" unicode="&#xdf;" horiz-adv-x="638" 
d="M568 0h-142v260h-85l-136 -260h-170l167 288c-36 11.333 -65.667 29.666 -89 54.999c-32.667 36 -49 83 -49 141c0 72.667 24 126.834 72 162.501s116.333 53.5 205 53.5h227v-700zM426 370v220h-81c-51.333 0 -87.666 -13.333 -108.999 -40
c-14.667 -18 -22 -41.333 -22 -70c0 -36 12.167 -63.333 36.5 -82s56.166 -28 95.499 -28h80z" />
    <glyph glyph-name="agrave" unicode="&#xe0;" horiz-adv-x="581" 
d="M516 0l-132.998 -0.00195312v76c-12.667 -21.333 -27.334 -38 -44.001 -50c-31.333 -22.667 -71.333 -34 -120 -34c-61.333 0 -108.333 16 -141 48c-28.667 28.667 -43 65.334 -43 110.001c0 46 15.333 83.333 46 112c42.667 39.333 113 59 211 59l76 -1h12l-1 22
c0 36.667 -17 62.334 -51 77.001c-18.667 8 -40.334 12 -65.001 12c-28 0 -55.167 -3.5 -81.5 -10.5s-54.5 -18.833 -84.5 -35.5v107c29.333 12 59.833 20.667 91.5 26s64.5 8 98.5 8c92.667 0 157 -23.333 193 -70c24 -30.667 36 -73.667 36 -129v-327zM380.002 221.998v13
h-23c-56.667 0 -96.667 -3.33301 -120 -10c-42.667 -12 -64 -36.667 -64 -74c0 -19.333 6.83301 -35.333 20.5 -48s34.5 -19 62.5 -19c34 0 61.667 9 83 27c27.333 23.333 41 60.333 41 111z" />
    <glyph glyph-name="aacute" unicode="&#xe1;" horiz-adv-x="619" 
d="M584 259c0 -88.667 -26 -156.334 -78 -203.001c-47.333 -42.667 -109.333 -64 -186 -64c-109.333 0 -186.666 40.333 -231.999 121c-35.333 62.667 -53 154 -53 274c0 99.333 16 177.333 48 234c27.333 48 67.333 83 120 105c40.667 16.667 100.167 28 178.5 34
s131.833 12.333 160.5 19v-121c-22.667 -4.66699 -38.334 -7.66699 -47.001 -9c-23.333 -4 -44.666 -6 -63.999 -6c-32 0 -58.667 -0.833008 -80 -2.5s-44.333 -5.5 -69 -11.5c-54 -13.333 -92 -39.666 -114 -78.999c-16 -28.667 -24 -65.667 -24 -111v-45h4
c12 33.333 30.333 60 55 80c35.333 29.333 81.666 44 138.999 44c73.333 0 132 -23 176 -69s66 -109.333 66 -190zM442 255c0 46 -9.33301 83.667 -28 113c-22 34.667 -54 52 -96 52s-74 -17 -96 -51c-18.667 -29.333 -28 -67.333 -28 -114c0 -46 9.33301 -83.667 28 -113
c22 -34.667 54 -52 96 -52s74 17 96 51c18.667 29.333 28 67.333 28 114z" />
    <glyph glyph-name="acircumflex" unicode="&#xe2;" horiz-adv-x="565" 
d="M520 145c0 -46 -17.3311 -81.668 -51.998 -107.001s-81.667 -38 -141 -38h-262v518h254c66.667 0 115 -14.333 145 -43c22 -21.333 33 -49.333 33 -84c0 -31.333 -8.83301 -57 -26.5 -77s-40.834 -33 -69.501 -39c33.333 -2 60.666 -13 81.999 -33
c24.667 -23.333 37 -55.666 37 -96.999zM362.002 371.999c0 23.333 -9.33398 39.333 -28.001 48c-11.333 5.33301 -27.666 8 -48.999 8h-84v-112h84c21.333 0 37.333 2.33301 48 7c19.333 8.66699 29 25 29 49zM378.001 157.999c0 28 -11 47.333 -33 58
c-14 6.66699 -33.333 10 -58 10h-86v-136h87c17.333 0 30.333 1 39 3c34 7.33301 51 29 51 65z" />
    <glyph glyph-name="atilde" unicode="&#xe3;" horiz-adv-x="436" 
d="M426 413h-225v-413h-136v518h361v-105z" />
    <glyph glyph-name="adieresis" unicode="&#xe4;" horiz-adv-x="640" 
d="M628 -135h-125v135h-366v-135h-125v235h58c27.333 32 46 70 56 114c7.33301 32.667 11 78 11 136v168h406v-418h85v-235zM407 100l-0.000976562 318.001h-150v-77c0 -57.333 -2 -98 -6 -122c-7.33301 -44.667 -23.666 -84.334 -48.999 -119.001h205z" />
    <glyph glyph-name="aring" unicode="&#xe5;" horiz-adv-x="565" 
d="M530 218l-353 -0.00195312c0 -36 12.667 -65.667 38 -89c28 -26 66.667 -39 116 -39c30.667 0 58.334 2.83301 83.001 8.5s51 14.834 79 27.501v-102c-25.333 -9.33301 -54.333 -17 -87 -23s-63.334 -9 -92.001 -9c-82.667 0 -148.667 21.333 -198 64
c-54 46.667 -81 114.334 -81 203.001c0 80.667 25.333 146 76 196c48 47.333 108 71 180 71c78 0 137.333 -25 178 -75s61 -117.333 61 -202v-31zM390 310.998c0 40.667 -11.333 71.667 -34 93c-20 18.667 -44.333 28 -73 28c-29.333 0 -54.333 -11.667 -75 -35
s-31 -52 -31 -86h213z" />
    <glyph glyph-name="ae" unicode="&#xe6;" horiz-adv-x="810" 
d="M805 0h-172l-155 251h-5v-251h-136v251h-5l-155 -251h-172l200 281l-183 237h155l155 -231h5v231h136v-231h5l155 231h155l-183 -237z" />
    <glyph glyph-name="ccedilla" unicode="&#xe7;" horiz-adv-x="494" 
d="M454 152c0 -46.667 -20.834 -85.002 -62.501 -115.002s-98.834 -45 -171.501 -45c-27.333 0 -54 2.33301 -80 7c-39.333 6.66699 -77.666 18.334 -114.999 35.001l12 98c33.333 -15.333 67.666 -26.666 102.999 -33.999c26 -5.33301 51 -8 75 -8
c28.667 0 52 6.16699 70 18.5s27 29.5 27 51.5c0 19.333 -7.5 34.666 -22.5 45.999s-39.833 17 -74.5 17h-71v95h70c28.667 0 49.334 6 62.001 18c9.33301 9.33301 14 21 14 35c0 16.667 -7.16699 30.334 -21.5 41.001s-36.5 16 -66.5 16c-20.667 0 -44.167 -2.5 -70.5 -7.5
s-52.5 -13.833 -78.5 -26.5l-2 99c30.667 10.667 59.5 18.834 86.5 24.501s56.167 8.5 87.5 8.5c73.333 0 127.333 -14.667 162 -44c27.333 -23.333 41 -54 41 -92c0 -36.667 -11.667 -65.667 -35 -87c-16 -14.667 -34 -24.334 -54 -29.001
c30.667 -6 55.334 -16.667 74.001 -32c27.333 -22 41 -52 41 -90z" />
    <glyph glyph-name="egrave" unicode="&#xe8;" horiz-adv-x="639" 
d="M574 0h-136v268l4 97l-232 -365h-145v518h136v-272l-4 -93l225 365h152v-518z" />
    <glyph glyph-name="eacute" unicode="&#xe9;" horiz-adv-x="639" 
d="M489 707c-15.333 -28 -34.335 -50 -57.002 -66c-30 -21.333 -66 -32 -108 -32c-41.333 0 -77 10.333 -107 31c-23.333 16 -42.666 38.333 -57.999 67l50 46c16 -18.667 35.333 -31.667 58 -39c16.667 -5.33301 35.667 -8 57 -8c22.667 0 41.334 2.66699 56.001 8
c24 8.66699 43.667 24.667 59 48zM573.998 0h-136v268l4 97l-232 -365h-145v518h136v-272l-4 -93l225 365h152v-518z" />
    <glyph glyph-name="ecircumflex" unicode="&#xea;" horiz-adv-x="556" 
d="M551 0h-171l-174 248h-5v-248h-136v518h136v-235h5l166 235h152l-192 -245z" />
    <glyph glyph-name="edieresis" unicode="&#xeb;" horiz-adv-x="585" 
d="M520 0h-136v418h-160v-115c0 -129.333 -9.83301 -213.5 -29.5 -252.5s-63.5 -58.5 -131.5 -58.5c-14 0 -24.5 0.333008 -31.5 1s-15.833 3 -26.5 7l6 104c7.33301 -2.66699 15.333 -4 24 -4c28.667 0 47.667 13.333 57 40c7.33301 20.667 11 55 11 103v60v215h417v-518z
" />
    <glyph glyph-name="igrave" unicode="&#xec;" horiz-adv-x="791" 
d="M726 0h-136v295l3 93h-5l-26 -84l-102 -304h-129l-102 304l-26 84h-5l3 -93v-295h-136v518h190l107 -296l29 -92h9l29 92l107 296h190v-518z" />
    <glyph glyph-name="iacute" unicode="&#xed;" horiz-adv-x="620" 
d="M555 0h-136v222h-218v-222h-136v518h136v-196h218v196h136v-518z" />
    <glyph glyph-name="icircumflex" unicode="&#xee;" horiz-adv-x="605" 
d="M570 259c0 -84.667 -24.668 -150.333 -74.001 -197s-113.666 -70 -192.999 -70c-80 0 -144 22.667 -192 68c-50.667 48 -76 114.333 -76 199c0 84 24.833 149.5 74.5 196.5s114.167 70.5 193.5 70.5s143 -22.667 191 -68c50.667 -48 76 -114.333 76 -199z
M427.999 259.001c0 51.333 -11.332 92.333 -33.999 123s-53 46 -91 46c-34.667 0 -63.334 -13 -86.001 -39c-26.667 -30 -40 -73.333 -40 -130c0 -55.333 13.333 -98.333 40 -129c23.333 -26.667 52 -40 86 -40c38 0 68.333 15.333 91 46s34 71.667 34 123z" />
    <glyph glyph-name="idieresis" unicode="&#xef;" horiz-adv-x="612" 
d="M547 0h-136v418h-210v-418h-136v518h482v-518z" />
    <glyph glyph-name="eth" unicode="&#xf0;" 
d="M573 259c0 -89.333 -22.9971 -157.665 -68.9971 -204.998c-40.667 -41.333 -92.334 -62 -155.001 -62c-34.667 0 -64.334 7.16699 -89.001 21.5s-44.667 33.166 -60 56.499l1 -85v-199h-136v732h119v-90c18 31.333 42.167 55.5 72.5 72.5s63.166 25.5 98.499 25.5
c64 0 115 -20.333 153 -61c43.333 -46.667 65 -115.334 65 -206.001zM431.003 259.001c0 51.333 -12.333 91.666 -37 120.999c-21.333 25.333 -47.333 38 -78 38s-56.667 -12.667 -78 -38c-24.667 -29.333 -37 -69.666 -37 -120.999s12.333 -91.666 37 -120.999
c21.333 -25.333 47.333 -38 78 -38s56.667 12.667 78 38c24.667 29.333 37 69.666 37 120.999z" />
    <glyph glyph-name="ntilde" unicode="&#xf1;" horiz-adv-x="463" 
d="M438 12c-16.667 -5.33301 -36.333 -10.001 -59 -14.001s-47.334 -6 -74.001 -6c-87.333 0 -155.333 28 -204 84c-44 50.667 -66 113.334 -66 188.001c0 73.333 23.667 134.333 71 183c51.333 52.667 121 79 209 79c18.667 0 37.5 -1 56.5 -3s38.5 -5.66699 58.5 -11
l-8 -98c-23.333 9.33301 -51.333 14 -84 14c-46.667 0 -85.167 -15.5 -115.5 -46.5s-45.5 -72.5 -45.5 -124.5c0 -48.667 13.667 -88.667 41 -120s64.333 -47 111 -47c19.333 0 36.833 1.5 52.5 4.5s32.834 8.5 51.501 16.5z" />
    <glyph glyph-name="ograve" unicode="&#xf2;" horiz-adv-x="480" 
d="M470 418h-162v-418h-136v418h-162v100h460v-100z" />
    <glyph glyph-name="oacute" unicode="&#xf3;" horiz-adv-x="551" 
d="M548 518l-219 -580.999c-20 -52.667 -40.667 -89.334 -62 -110.001c-34 -32 -84 -48 -150 -48c-26 0 -52.333 4.66699 -79 14l10 101l22 -7c8.66699 -2.66699 19 -4 31 -4c24 0 43.5 4.33301 58.5 13s26.833 23.667 35.5 45l12 30l-204 547h150l97 -286l29 -99h5l32 103
l94 282h138z" />
    <glyph glyph-name="ocircumflex" unicode="&#xf4;" horiz-adv-x="828" 
d="M793 259c0 -88 -21.667 -155.668 -65 -203.001c-38.667 -42.667 -88.334 -64 -149.001 -64c-19.333 0 -37 1.83301 -53 5.5s-30.667 9.16699 -44 16.5v-228h-136v228c-13.333 -7.33301 -27.666 -12.833 -42.999 -16.5s-33.333 -5.5 -54 -5.5c-61.333 0 -111 21 -149 63
c-43.333 47.333 -65 115.333 -65 204c0 96 25.333 167.333 76 214c38 35.333 84 53 138 53c18 0 34.333 -1.5 49 -4.5s30.667 -9.16699 48 -18.5v197h136v-197c15.333 8 31.5 13.833 48.5 17.5s33.167 5.5 48.5 5.5c53.333 0 99 -17.667 137 -53
c51.333 -47.333 77 -118.666 77 -213.999zM651 258.999c0 54.667 -11 96.667 -33 126c-18.667 24.667 -42.334 37 -71.001 37c-12.667 0 -23.834 -1.16699 -33.501 -3.5s-20.167 -6.83301 -31.5 -13.5v-292c9.33301 -6 19.833 -10.333 31.5 -13s22.834 -4 33.501 -4
c28.667 0 52.334 12.333 71.001 37c22 29.333 33 71.333 33 126zM346 112.999v292c-9.33301 6 -19.833 10.333 -31.5 13s-22.834 4 -33.501 4c-28.667 0 -52.334 -12.333 -71.001 -37c-22 -29.333 -33 -71.333 -33 -126s11 -96.667 33 -126
c18.667 -24.667 42.334 -37 71.001 -37c12.667 0 23.834 1.16699 33.501 3.5s20.167 6.83301 31.5 13.5z" />
    <glyph glyph-name="otilde" unicode="&#xf5;" horiz-adv-x="567" 
d="M557 0h-162l-86 138l-31 58l-35 -60l-82 -136h-151l174 267l-159 251h162l72 -121l30 -59l34 61l68 119h151l-159 -251z" />
    <glyph glyph-name="odieresis" unicode="&#xf6;" horiz-adv-x="654" 
d="M639 -135h-125v135h-449v518h136v-418h217v418h136v-418h85v-235z" />
    <glyph glyph-name="divide" unicode="&#xf7;" horiz-adv-x="570" 
d="M505 0l-135.999 -0.000976562v191c-20 -4 -41.333 -7.16699 -64 -9.5s-44.334 -3.5 -65.001 -3.5c-78 0 -132 16.667 -162 50c-22 24 -33 60 -33 108v182h136v-165c0 -29.333 8 -49.666 24 -60.999c13.333 -9.33301 33 -14 59 -14c16 0 33 1 51 3s36 5.33301 54 10v227
h136v-518z" />
    <glyph glyph-name="oslash" unicode="&#xf8;" horiz-adv-x="872" 
d="M807 0h-742v518h136v-418h167v418h136v-418h167v418h136v-518z" />
    <glyph glyph-name="ugrave" unicode="&#xf9;" horiz-adv-x="909" 
d="M894 -135h-125v135h-704v518h136v-418h167v418h136v-418h167v418h136v-418h87v-235z" />
    <glyph glyph-name="uacute" unicode="&#xfa;" horiz-adv-x="617" 
d="M597 167c0 -48.667 -16.666 -88 -49.999 -118c-36.667 -32.667 -89.334 -49 -158.001 -49h-251v418h-133v100h269v-184h105c86.667 0 148 -21.667 184 -65c22.667 -27.333 34 -61.333 34 -102zM455.001 167c0 22 -6.99902 39.667 -20.999 53
c-16.667 16 -41.667 24 -75 24h-85v-154h85c29.333 0 52.666 7 69.999 21s26 32.667 26 56z" />
    <glyph glyph-name="ucircumflex" unicode="&#xfb;" horiz-adv-x="805" 
d="M740 0h-136v518h136v-518zM524 167c0 -48.667 -16.666 -88 -49.999 -118c-36.667 -32.667 -89.334 -49 -158.001 -49h-251v518h136v-184h105c83.333 0 143.333 -20.333 180 -61c25.333 -28 38 -63.333 38 -106zM382.001 167c0 19.333 -6.33398 35.667 -19.001 49
c-17.333 18.667 -43 28 -77 28h-85v-154h85c30.667 0 54.334 7.33301 71.001 22s25 33 25 55z" />
    <glyph glyph-name="udieresis" unicode="&#xfc;" horiz-adv-x="539" 
d="M519 167c0 -48.667 -16.666 -88 -49.999 -118c-36.667 -32.667 -89.334 -49 -158.001 -49h-251v518h136v-184h105c86.667 0 148 -21.667 184 -65c22.667 -27.333 34 -61.333 34 -102zM377.001 167c0 19.333 -6.33398 35.667 -19.001 49c-17.333 18.667 -43 28 -77 28h-85
v-154h85c30.667 0 54.334 7.33301 71.001 22s25 33 25 55z" />
    <glyph glyph-name="yacute" unicode="&#xfd;" horiz-adv-x="488" 
d="M453 264c0 -74.667 -21.665 -136.666 -64.998 -185.999c-50.667 -57.333 -123.334 -86 -218.001 -86c-28.667 0 -54 2.33301 -76 7s-45 12 -69 22l10 100c16.667 -8 35.167 -14.833 55.5 -20.5s39.5 -8.5 57.5 -8.5c44.667 0 81.334 9.33301 110.001 28
c35.333 22.667 53 56.667 53 102h-200v94h200c-8.66699 42.667 -32.667 73 -72 91c-27.333 12.667 -60.333 19 -99 19c-30 0 -61.667 -7.33301 -95 -22l-8 98c19.333 7.33301 39.166 13.166 59.499 17.499s39.166 6.5 56.499 6.5c80.667 0 147.667 -18.667 201 -56
c66 -46 99 -114.667 99 -206z" />
    <glyph glyph-name="thorn" unicode="&#xfe;" horiz-adv-x="848" 
d="M813 259c0 -84 -24.5 -149.499 -73.5 -196.499s-113.5 -70.5 -193.5 -70.5c-75.333 0 -138.333 20.833 -189 62.5s-76 95.5 -76 161.5h-80v-216h-136v518h136v-208h80c7.33301 67.333 36 120.166 86 158.499s109.667 57.5 179 57.5c79.333 0 143 -23 191 -69
c50.667 -48.667 76 -114.667 76 -198zM671 259.001c0 51.333 -11.332 92.333 -33.999 123s-53 46 -91 46c-34.667 0 -63.334 -13 -86.001 -39c-26.667 -30 -40 -73.333 -40 -130c0 -55.333 13.333 -98.333 40 -129c23.333 -26.667 52 -40 86 -40c38 0 68.333 15.333 91 46
s34 71.667 34 123z" />
    <glyph glyph-name="ydieresis" unicode="&#xff;" horiz-adv-x="561" 
d="M496 0h-136v195h-61l-102 -195h-162l130 211c-40 10 -70.667 30.333 -92 61c-18 26 -27 56 -27 90c0 49.333 19.333 88.333 58 117c34.667 26 76 39 124 39h268v-518zM360 282v146h-90c-25.333 0 -45.333 -7.16699 -60 -21.5s-22 -31.5 -22 -51.5
c0 -21.333 8.16699 -38.833 24.5 -52.5s35.5 -20.5 57.5 -20.5h90z" />
    <glyph glyph-name="OE" unicode="&#x152;" horiz-adv-x="1039" 
d="M994 226c0 -62.667 -18.332 -113.667 -54.999 -153c-45.333 -48.667 -114.333 -73 -207 -73h-236v313h-284v-313h-142v700h142v-272h284v272h142v-272h98c89.333 0 156.666 -21.667 201.999 -65c37.333 -36 56 -81.667 56 -137zM849.001 219
c0 26.667 -7.99902 48.333 -23.999 65c-21.333 22.667 -56 34 -104 34h-83v-208h94c37.333 0 66.166 10.833 86.499 32.5s30.5 47.167 30.5 76.5z" />
    <glyph glyph-name="oe" unicode="&#x153;" horiz-adv-x="884" 
d="M864 167c0 -42.667 -13.332 -79 -39.999 -109c-34.667 -38.667 -87.334 -58 -158.001 -58h-254v234h-216v-234h-136v518h136v-184h216v184h136v-184h117c68 0 119.667 -18 155 -54c29.333 -30 44 -67.667 44 -113zM729.001 167c0 21.333 -6 38.333 -18 51
c-16 17.333 -42.333 26 -79 26h-84v-154h86c36.667 0 63 9.66699 79 29c10.667 13.333 16 29.333 16 48z" />
    <glyph glyph-name="Scaron" unicode="&#x160;" horiz-adv-x="1015" 
d="M970 226c0 -62.667 -18.332 -113.67 -54.999 -153.003c-45.333 -48.667 -114.333 -73 -207 -73h-236v585h-185v-149c0 -104.667 -2.33301 -178 -7 -220c-8 -72.667 -25.667 -126.334 -53 -161.001c-32.667 -42 -82.334 -63 -149.001 -63c-12.667 0 -23.667 0.5 -33 1.5
s-21 3.16699 -35 6.5l6 111c3.33301 -0.666992 9.5 -1.66699 18.5 -3s15.5 -2 19.5 -2c40 0 67 27.333 81 82c10 38.667 15 100.334 15 185.001v12c0 12.667 -0.166992 25.334 -0.5 38.001s-0.5 25.334 -0.5 38.001v11v228h465v-262h98c80.667 0 143 -18.333 187 -55
c47.333 -39.333 71 -91.666 71 -156.999zM825.001 218.997c0 28.667 -8 52.333 -24 71c-22 25.333 -56.667 38 -104 38h-83v-218h94c34 0 62 9.66699 84 29s33 46 33 80z" />
    <glyph glyph-name="scaron" unicode="&#x161;" horiz-adv-x="861" 
d="M841 167c0 -42.667 -13.3311 -79 -39.998 -109c-34.667 -38.667 -87.334 -58 -158.001 -58h-254v418h-160v-115c0 -117.333 -11.667 -198.5 -35 -243.5s-67 -67.5 -131 -67.5c-20.667 0 -40 2.66699 -58 8l6 104c7.33301 -2.66699 15.333 -4 24 -4
c33.333 0 54.666 17.333 63.999 52c6 22.667 9 73 9 151v215h417v-184h117c68 0 119.667 -18 155 -54c29.333 -30 44 -67.667 44 -113zM706.002 167c0 21.333 -6 38.333 -18 51c-16 17.333 -42.333 26 -79 26h-84v-154h86c36.667 0 63 9.66699 79 29
c10.667 13.333 16 29.333 16 48z" />
    <glyph glyph-name="Ydieresis" unicode="&#x178;" horiz-adv-x="605" 
d="M545 0h-174v-136h-137v136h-174v518h136v-418h213v418h136v-518z" />
    <glyph glyph-name="florin" unicode="&#x192;" horiz-adv-x="436" 
d="M426 413h-225v-413h-136v518h361v-105z" />
    <glyph glyph-name="endash" unicode="&#x2013;" horiz-adv-x="580" 
d="M535 302h-490v90h490v-90z" />
    <glyph glyph-name="emdash" unicode="&#x2014;" horiz-adv-x="852" 
d="M812 230h-772v91h772v-91z" />
    <glyph glyph-name="quoteleft" unicode="&#x2018;" horiz-adv-x="287" 
d="M227 835l-25 -250h-142l47 250h120z" />
    <glyph glyph-name="quoteright" unicode="&#x2019;" horiz-adv-x="289" 
d="M239 700l-69 -250h-120l47 250h142z" />
    <glyph glyph-name="quotesinglbase" unicode="&#x201a;" horiz-adv-x="287" 
d="M237 135l-69 -250h-118l47 250h140z" />
    <glyph glyph-name="quotedblleft" unicode="&#x201c;" horiz-adv-x="527" 
d="M467 835l-25 -250h-142l47 250h120zM227 835l-25 -250h-142l47 250h120z" />
    <glyph glyph-name="quotedblright" unicode="&#x201d;" horiz-adv-x="549" 
d="M489 700l-69 -250h-120l47 250h142zM249 700l-69 -250h-120l47 250h142z" />
    <glyph glyph-name="quotedblbase" unicode="&#x201e;" horiz-adv-x="549" 
d="M489 135l-69 -250h-120l47 250h142zM249 135l-69 -250h-120l47 250h142z" />
    <glyph glyph-name="dagger" unicode="&#x2020;" horiz-adv-x="656" 
d="M626 332h-228v-546h-140v546h-228v140h228v228h140v-228h228v-140z" />
    <glyph glyph-name="daggerdbl" unicode="&#x2021;" horiz-adv-x="622" 
d="M562 590c-16.667 4.66699 -36 8.83301 -58 12.5s-42.333 5.5 -61 5.5c-53.333 0 -94.5 -12.833 -123.5 -38.5s-43.5 -63.5 -43.5 -113.5v-30h171v-80h-172v-228h278v-118h-483v118h63v228h-63v80h64v34c0 84 27.667 147 83 189c52 39.333 125 59 219 59
c38.667 0 80.667 -4.66699 126 -14v-104z" />
    <glyph glyph-name="bullet" unicode="&#x2022;" horiz-adv-x="403" 
d="M373 350c0 -47.333 -16.6689 -87.666 -50.002 -120.999s-73.666 -50 -120.999 -50c-48 0 -88.667 16.667 -122 50s-50 73.666 -50 120.999c0 48 16.667 88.667 50 122s74 50 122 50c46.667 0 86.834 -16.833 120.501 -50.5s50.5 -74.167 50.5 -121.5z" />
    <glyph glyph-name="ellipsis" unicode="&#x2026;" horiz-adv-x="735" 
d="M685 0h-145v145h145v-145zM440 0h-145v145h145v-145zM195 0h-145v145h145v-145z" />
    <glyph glyph-name="perthousand" unicode="&#x2030;" horiz-adv-x="1196" 
d="M1171 187c0 -56 -13 -101.333 -39 -136c-29.333 -39.333 -71.666 -59 -126.999 -59s-97.666 19.667 -126.999 59c-26 34.667 -39 80 -39 136s13 101.333 39 136c29.333 39.333 71.666 59 126.999 59s97.666 -19.667 126.999 -59c26 -34.667 39 -80 39 -136zM789 187
c0 -56 -13 -101.333 -39 -136c-29.333 -39.333 -71.666 -59 -126.999 -59s-97.666 19.667 -126.999 59c-26 34.667 -39 80 -39 136s13 101.333 39 136c29.333 39.333 71.666 59 126.999 59s97.666 -19.667 126.999 -59c26 -34.667 39 -80 39 -136zM664 680l-436 -703l-75 50
l435 700zM357 513c0 -56 -13 -101.333 -39 -136c-29.333 -39.333 -71.666 -59 -126.999 -59s-97.666 19.667 -126.999 59c-26 34.667 -39 80 -39 136s13 101.333 39 136c29.333 39.333 71.666 59 126.999 59s97.666 -19.667 126.999 -59c26 -34.667 39 -80 39 -136z
M1057 187c0 42 -1.66699 70 -5 84c-7.33301 30.667 -23 46 -47 46c-28 0 -44.667 -22 -50 -66c-1.33301 -11.333 -2 -32.666 -2 -63.999c0 -42 1.66699 -70 5 -84c7.33301 -30.667 23 -46 47 -46c28 0 44.667 22 50 66c1.33301 11.333 2 32.666 2 63.999zM675 187
c0 42 -1.66699 70 -5 84c-7.33301 30.667 -23 46 -47 46c-28 0 -44.667 -22 -50 -66c-1.33301 -11.333 -2 -32.666 -2 -63.999c0 -42 1.66699 -70 5 -84c7.33301 -30.667 23 -46 47 -46c28 0 44.667 22 50 66c1.33301 11.333 2 32.666 2 63.999zM243 513
c0 42 -1.66699 70 -5 84c-7.33301 30.667 -23 46 -47 46c-28 0 -44.667 -22 -50 -66c-1.33301 -11.333 -2 -32.666 -2 -63.999c0 -42 1.66699 -70 5 -84c7.33301 -30.667 23 -46 47 -46c28 0 44.667 22 50 66c1.33301 11.333 2 32.666 2 63.999z" />
    <glyph glyph-name="guilsinglleft" unicode="&#x2039;" horiz-adv-x="323" 
d="M283 104h-127l-116 211l116 203h127l-110 -203z" />
    <glyph glyph-name="guilsinglright" unicode="&#x203a;" horiz-adv-x="323" 
d="M283 315l-116 -211h-127l110 211l-110 203h127z" />
    <glyph glyph-name="trademark" unicode="&#x2122;" horiz-adv-x="991" 
d="M931 327h-98v212l2 67l-22 -60l-74 -219h-92l-74 219l-19 60l-1 -67v-212h-98v373h137l77 -213l21 -66h6l21 66l77 213h137v-373zM391 628h-117v-301h-98v301h-116v72h331v-72z" />
    <glyph glyph-name="periodcentered" unicode="&#x2219;" horiz-adv-x="310" 
d="M265 360c0 -30 -10.833 -55.833 -32.5 -77.5s-47.5 -32.5 -77.5 -32.5s-55.833 10.833 -77.5 32.5s-32.5 47.5 -32.5 77.5s10.833 55.833 32.5 77.5s47.5 32.5 77.5 32.5s55.833 -10.833 77.5 -32.5s32.5 -47.5 32.5 -77.5z" />
    <glyph glyph-name=".null" horiz-adv-x="0" 
 />
    <glyph glyph-name="nonmarkingreturn" horiz-adv-x="351" 
 />
  </font>
</defs>
</svg>
